<?xml version="1.0" encoding="utf-8" ?><svg xmlns="http://www.w3.org/2000/svg" xmlns:xlink="http://www.w3.org/1999/xlink" width="1469" height="840" viewBox="0 0 1469 840"><path fill="#1A415C" transform="scale(1.09301 1.09375)" d="M266.629 231.985C269.947 231.229 292.469 231.487 296.79 231.497L361.633 231.536L361.607 242.214L304.444 242.051C292.876 242.044 277.599 241.669 266.33 242.712C233.939 245.659 203.518 259.558 180.083 282.117C151.708 309.442 135.483 347.015 135.048 386.411C134.316 425.858 149.483 463.94 177.132 492.079C202.09 517.658 237.079 532.938 272.507 534.777C284.739 535.411 298.966 534.887 311.555 535.057L387.94 535.116L388.048 545.471L314.583 545.528C261.53 545.58 225.422 546.022 181.144 509.847C149.485 484.123 129.344 446.87 125.154 406.288C116.345 317.773 177.637 240.573 266.629 231.985Z"/><path fill="#1A415C" transform="scale(1.09301 1.09375)" d="M1060.53 231.405C1111.37 229.478 1153.41 239.787 1190.46 276.844C1220.28 307.008 1236.83 347.82 1236.46 390.234C1236.38 431.458 1219.83 470.94 1190.49 499.888C1166.45 523.869 1131.1 541.955 1097.17 544.754C1082.11 545.997 1062.79 545.455 1047.31 545.448L970.732 545.407L970.683 535.084C981.643 534.813 992.607 534.721 1003.57 534.807C1022.53 534.979 1041.48 535.025 1060.44 534.944C1072.23 534.898 1084.6 535.325 1096.31 534.116C1129.12 530.505 1159.72 515.83 1183.08 492.504C1210.44 465.055 1225.79 427.86 1225.74 389.098C1225.92 349.708 1210.39 311.872 1182.59 283.975C1159.65 261.113 1129.68 246.657 1097.52 242.944C1085.64 241.684 1071.68 242.038 1059.56 242.045L1008.57 242.111C1008.58 238.726 1008.31 235.049 1008.14 231.646C1024.49 231.041 1043.95 231.484 1060.53 231.405Z"/><path fill="#1A415C" transform="scale(1.09301 1.09375)" d="M773.944 343.57C787.883 342.243 806.292 343.586 820.343 343.435C835.369 343.272 851.406 359.114 844.135 374.572C840.294 382.739 831.465 386.437 823.5 389.384C832.526 401.091 841.889 417.396 853.579 426.182C855.757 427.818 863.883 431.467 866.74 432.773C858.559 433.696 848.017 433.416 839.674 433.222C837.386 429.598 834.243 425.321 831.754 421.744C824.495 412.123 817.034 401.251 809.96 391.384L800.775 391.297C800.711 400.801 799.686 417.491 802.518 426.542C803.449 429.517 809.21 430.764 812.719 432.068C810.458 433.978 777.074 434.02 775.037 431.914C777.483 429.596 782.608 431.086 785.464 428.236C789.158 424.55 787.927 367.967 787.687 360.266C787.072 340.565 781.881 351.052 773.944 343.57ZM824.478 380.465C833.047 369.192 832.518 356.162 818.26 350.294C812.526 347.934 807.163 348.68 801.211 348.94C800.801 361.304 800.65 373.675 800.756 386.045C809.46 386.05 817.389 386.57 824.478 380.465Z"/><path fill="#1A415C" transform="scale(1.09301 1.09375)" d="M399.802 495.746L400.111 495.704C408.707 494.632 420.08 494.825 428.985 494.724C439.127 517.697 450.555 541.019 461.038 564.044C470.294 541.93 483.016 517.026 493.512 495.085C501.969 494.953 513.824 494.474 521.785 496.152C517.084 497.532 511.889 497.4 508.292 500.698C506.167 506.108 507.339 565.469 507.469 575.234C507.503 577.748 510.443 579.673 512.532 580.992L512.188 584.309C504.748 584.032 487.45 585.077 481.546 583.485L481.246 582.545C484.391 580.004 489.127 581.858 492.022 578.84C495.443 575.275 494.146 516.95 494.189 508.233C481.388 533.868 469.196 560.907 457.192 587.004C453.837 580.662 450.786 572.859 447.666 566.258C438.754 547.403 430.62 527.808 421.481 509.094C421.3 523.875 421.35 538.658 421.633 553.437C421.752 561.997 420.132 574.848 426.121 581.057L425.494 584.225C422.07 584.289 405.295 585.222 403.368 582.912C405.404 580.916 413.511 580.624 414.092 577.465C416.095 566.586 416.337 507.321 414.597 501.171C411.39 497.539 405.38 497.76 399.802 495.746Z"/><path fill="#1A415C" transform="scale(1.09301 1.09375)" d="M641.315 489.731C644.78 491.74 643.715 502.051 643.701 506.281L643.161 548.853C643.098 554.531 641.95 572.229 645.359 576.087C648.018 577.367 650.498 576.219 653.883 576.426L654.064 577.535C651.701 581.22 637.4 585.344 632.555 586.953L632.574 577.902C621.401 586.599 614.638 589.772 601.126 582.912C573.547 560.613 596.614 504.678 632.013 526.546C632.278 519.691 633.1 510.175 631.301 503.695C629.671 497.82 626.555 500.791 622.572 498.681L622.959 497.685C627.25 493.905 635.636 491.629 641.315 489.731ZM619.529 579.205C622.04 578.602 630.757 576.402 631.312 573.53C633.889 560.193 635.912 524.606 615.132 525.743C595.274 537.884 595.295 572.482 619.529 579.205Z"/><path fill="#1A415C" transform="scale(1.09301 1.09375)" d="M890.025 220.028C936.027 216.707 937.535 273.271 903.347 284.056C865.145 292.931 850.416 235.451 890.025 220.028ZM901.543 280.194C911.172 274.977 913.321 268.694 913.59 257.825C913.951 243.253 909.181 223.62 891.137 224.502C870.639 235.848 877.694 281.367 901.543 280.194Z"/><path fill="#1A415C" transform="scale(1.09301 1.09375)" d="M586.128 220.05C602.871 218.588 616.548 225.022 621.445 241.998C624.004 251.092 622.848 260.831 618.23 269.072C613.737 276.921 606.616 281.776 598.011 284.135C583.329 286.772 570.577 280.419 565.06 266.322C561.486 257.15 561.793 246.918 565.911 237.977C570.139 228.747 576.814 223.506 586.128 220.05ZM597.959 280C603.366 276.936 607.159 272.992 608.518 266.736C611.833 251.478 607.687 223.904 587.432 224.504C581.118 227.93 579.589 230.275 577.237 237.366C572.875 250.521 578.468 284.161 597.959 280Z"/><path fill="#1A415C" transform="scale(1.09301 1.09375)" d="M893.488 370.295C899.903 370.068 904.259 369.878 910.371 372.606C917.864 376.018 923.657 382.32 926.427 390.076C933.685 410.04 923.753 427.828 904.358 434.891C889.093 437.105 876.222 430.777 870.767 415.863C867.554 406.841 868.046 396.913 872.137 388.253C876.755 378.645 883.796 373.759 893.488 370.295ZM902.211 430.672C919.987 423.271 917.012 403.82 911.897 388.399C909.212 380.305 902.841 375.956 894.484 374.913C872.006 382.797 879.774 430.118 902.211 430.672Z"/><path fill="#1A415C" transform="scale(1.09301 1.09375)" d="M286.454 370.33C326.833 367.778 334.876 424.62 295.014 435.182C256.076 440.457 247.466 383.027 286.454 370.33ZM294.453 430.985C311.069 425.931 309.523 405.479 305.635 391.825C303.24 383.415 297.951 376.11 288.8 374.849C264.068 380.558 272.592 429.43 294.453 430.985Z"/><path fill="#1A415C" transform="scale(1.09301 1.09375)" d="M820.106 521.361C835.127 520.711 848.257 528.497 852.39 543.387C854.917 552.365 853.775 561.98 849.215 570.115C844.214 578.869 836.675 583.779 827.144 586.395C789.591 591.226 779.72 531.351 820.106 521.361ZM828.218 581.589C831.452 580.143 833.588 579.142 835.64 576.135C845.27 562.029 841.122 525.96 819.332 525.779C802.509 535.724 804.737 557.216 812.465 572.824C815.541 579.037 821.476 581.572 828.218 581.589Z"/><path fill="#1A415C" transform="scale(1.09301 1.09375)" d="M403.326 188.835C409.617 193.401 432.113 259.431 438.291 270.159C443.577 279.34 446.753 279.324 457.47 282.489C441.639 283.964 425.709 284.047 409.863 282.736C421.407 279.897 427.675 278.28 421.537 264.825C419.786 260.988 418.061 256.105 416.545 252.092L409.664 252.013C400.666 252.019 391.669 252.093 382.673 252.235C380 258.359 375.378 267.755 374.286 274.184C373.401 279.393 382.394 279.177 385.072 282.259L384.553 282.913C380.098 283.929 359.628 283.806 355.342 282.741C354.956 279.481 362.645 280.741 365.974 274.231C380.016 246.766 389.131 216.063 403.326 188.835ZM384.685 247.262L399.399 247.233L414.395 247.21C410.611 237.353 404.708 221.016 399.893 211.804C394.593 223.523 389.523 235.345 384.685 247.262Z"/><path fill="#1A415C" transform="scale(1.09301 1.09375)" d="M991.677 382.746C998.21 376.198 1009.7 366.753 1019.36 371.051C1038.1 379.395 1025.4 412.154 1031.12 427.434C1031.99 429.767 1035.92 430.252 1038.22 431.146L1038.34 432.085C1034.42 434.565 1013.18 432.945 1007.32 432.683C1008.58 432.158 1014.49 429.678 1015.54 428.802C1020.37 424.106 1018.34 410.564 1018.71 403.952C1020 380.317 1012.94 370.152 992.419 387.101L992.333 407.979C992.194 413.476 990.906 425.511 995.029 429.137C998.542 429.569 999.879 429.528 1002.53 431.954L1002.17 432.774C997.017 434.302 975.255 433.027 969.677 432.433C973.841 430.793 980.552 429.22 980.65 424.287C981.015 405.891 987.568 359.837 955.465 386.956C955.254 396.591 954.357 417.408 956.541 426.876C957.201 429.739 965.039 431.24 968.652 432.545C958.926 434.036 941.254 433.003 931.045 432.542C933.782 431.564 940.641 430.324 941.53 428.186C945.287 419.142 944.055 389.898 941.873 381.231L932.434 379.083C938.29 375.081 945.115 372.754 951.726 370.197C954.146 370.402 953.448 369.991 954.969 371.409C956.117 374.28 955.657 379.073 955.569 382.324C967.407 369.303 983.201 362.854 991.677 382.746Z"/><path fill="#1A415C" transform="scale(1.09301 1.09375)" d="M448.547 341.448C462.126 340.454 470.268 342.586 483.09 346.528C484.296 344.499 484.899 342.859 486.999 342.054L488.072 342.608C489.63 345.797 490.612 367.209 488.763 369.769C484.807 366.951 483.733 354.772 469.644 348.54C462.13 345.168 453.565 345.009 445.93 348.099C407.47 363.494 422.256 450.37 476.822 426.526C478.056 418.846 477.578 407.089 477.476 399.031L477.149 391.317C472.752 388.08 469.081 386.682 464.084 384.487C471.958 383.785 495.029 383.725 502.524 384.807C498.685 386.483 496.319 387.538 492.659 389.723C489.379 400.142 490.619 417.011 490.917 428.155C471.496 435.747 448.826 440.161 429.984 428.384C419.65 422.021 412.37 411.705 409.837 399.835C406.941 386.938 409.279 373.418 416.337 362.243C424.233 349.943 434.826 344.546 448.547 341.448Z"/><path fill="#1A415C" transform="scale(1.09301 1.09375)" d="M748.59 220.026C752.692 219.847 756.938 219.528 761.013 220.133C787.782 224.107 770.333 265.301 776.892 273.709C779.162 276.619 783.761 272.003 786.338 272.302C787.304 276.142 782.892 280.955 779.503 282.448C776.275 283.864 772.614 283.93 769.337 282.632C765.638 281.133 765.036 278.624 763.556 275.05C754.648 282.297 746.328 287.296 735.374 281.321C729.623 275.215 730.078 271.076 730.524 263.192C738.603 250.841 751.019 247.294 764.261 242.656C764.176 237.186 764.099 217.795 747.264 225.678C745.634 226.441 744.326 238.651 739.585 242.271C730.157 244.155 726.827 225.63 748.59 220.026ZM745.631 274.264C753.372 277.247 757.336 274.965 764.017 270.578C764.152 266.743 765.007 248.934 763.164 246.893C751.484 251.943 734.08 259.259 745.631 274.264Z"/><path fill="#1A415C" transform="scale(1.09301 1.09375)" d="M716.604 521.376C756.762 518.571 733.46 559.987 742.702 575.38C747.013 578.302 747.369 573.57 751.409 573.454L751.773 574.646C751.45 576.115 751.171 577.267 750.412 578.574C748.489 581.826 745.322 584.152 741.645 585.014C735.187 586.543 730.694 583.469 729.672 576.852L729.574 576.189C720.143 583.542 709.721 590.638 699.07 581.087C683.627 559.996 714.78 549.368 729.559 544.052C729.456 538.282 728.482 524.972 718.939 524.889C707.202 524.788 711.739 538.1 705.37 543.83C703.629 544.223 703.304 544.495 701.641 543.325C696.546 539.74 697.029 534.296 700.087 529.587C703.494 524.339 710.873 522.599 716.604 521.376ZM710.349 575.248C718.405 579.099 722.432 576.265 729.616 572.011C729.677 568.028 730.243 550.749 729.004 548.16C720.115 552.241 701.943 559.185 708.534 572.212C709.061 573.269 709.668 574.284 710.349 575.248Z"/><path fill="#1A415C" transform="scale(1.09301 1.09375)" d="M1063.43 370.409C1071.09 369.931 1076.73 369.253 1083.45 374.027C1095.23 382.401 1084.55 419.554 1092.22 425.988C1096.09 425.636 1095.79 423.06 1099.68 422.549L1100.15 423.321C1099 432.735 1081.27 440.68 1077.98 425.203C1067.91 432.497 1060.11 438.776 1048.45 430.522C1031.76 409.029 1063 398.506 1078.3 393.037C1077.71 382.06 1077.43 370.769 1062.21 375.889C1055.77 378.052 1060.02 389.635 1053.57 392.558C1046.77 392.864 1045.41 385.34 1048.12 380.376C1051.59 374.027 1057.11 372.436 1063.43 370.409ZM1059.53 424.48C1066.92 428.19 1071.64 424.967 1078.09 420.998C1078.21 415.68 1078.84 401.593 1077.42 397.154C1065.69 401.839 1047.89 409.46 1059.53 424.48Z"/><path fill="#1A415C" transform="scale(1.09301 1.09375)" d="M688.673 339.351C690.766 339.352 690.227 339.07 691.844 340.006C693.284 345.33 692.325 389.988 692.32 398.607C696.324 395.772 714.527 380.869 713.238 376.305C711.582 375.785 710.088 375.37 708.407 374.937L708.101 373.873C710.926 371.014 735.535 373.121 740.376 373.783C737.937 374.33 731.992 375.133 730.013 375.87C721.206 379.148 710.984 389.625 703.77 396.056C711.593 406.263 722.549 421.574 732.822 429.263C733.883 430.058 739.524 432.152 741.099 432.738C738.617 433.106 735.736 433.13 733.195 433.22C723.827 433.336 714.554 433.572 705.259 432.377C707.821 431.55 712.802 430.672 713.045 427.839C710.653 422.021 696.918 405.767 692.27 400.55C692.292 404.452 692.188 408.893 692.048 412.793C691.59 425.597 692.099 428.949 704.589 432.589C695.134 433.758 677.806 433.283 668.13 432.791C671.323 431.25 678.398 430.176 679.892 427.593C681.847 418.697 682.473 363.489 679.757 350.952C679.396 349.288 671.734 348.462 669.234 348.085C675.237 344.106 681.957 341.863 688.673 339.351Z"/><path fill="#1A415C" transform="scale(1.09301 1.09375)" d="M552.891 521.365C572.168 520.805 577.904 530.099 580.345 547.454L537.73 547.455C537.866 548.719 538.049 549.977 538.277 551.227C542.104 573.318 562.434 585.227 576.911 562.968C577.673 561.711 577.651 561.782 578.853 561.101L579.691 562.096C580.087 565.308 578.895 568.351 577.547 571.264C571.529 584.525 556.27 590.528 543.05 583.934C526.921 575.89 525.14 550.965 532.494 536.484C536.948 527.714 543.979 524.085 552.891 521.365ZM538.021 542.734L554.039 542.378L566.122 542.218C563.608 533.258 561.783 526.7 550.989 526.502C541.757 530.586 540.385 533.001 538.021 542.734Z"/><path fill="#1A415C" transform="scale(1.09301 1.09375)" d="M950.526 219.155L951.394 219.427C953.809 222.178 952.972 227.41 952.866 231.372C955.355 228.848 961.172 223.059 964.109 222.019C1001.16 208.904 983.678 259.722 990.108 277.061C991.313 280.309 1000.11 282.18 1002.8 282.938C992.733 284.067 971.9 283.685 961.899 282.675C966.862 281.689 972.109 281.311 975.609 277.73C978.592 271.289 977.094 244.381 976.408 236.15C975.939 220.311 958.975 231.282 952.853 235.632C952.775 246.989 952.746 258.363 952.689 269.718C952.647 278.052 955.323 278.364 961.941 282.152L961.992 282.723C956.889 284.444 932.224 283.297 925.835 282.885C930.432 281.711 934.319 280.634 938.834 279.177C942.13 266.917 940.508 244.971 940.365 231.328C937.066 230.14 933.786 228.898 930.528 227.603C936.414 224.229 944.077 221.591 950.526 219.155Z"/><path fill="#1A415C" transform="scale(1.09301 1.09375)" d="M635.987 370.315C636.347 370.287 636.707 370.266 637.067 370.25C655.983 369.348 664.809 376.876 665.583 395.821C651.491 395.762 637.4 395.804 623.309 395.949C625.979 409.889 632.958 429.428 652.639 422.271C655.673 421.168 658.711 417.599 660.789 415.162C662.163 412.76 661.963 412.251 664.03 410.99L664.93 411.819C665.967 418.952 656.853 431.11 650.763 433.252C621.303 443.617 608.194 411.692 617.134 388.118C621.039 377.82 627.221 374.244 635.987 370.315ZM623.331 391.215L640.097 391.211L651.532 391.268C649.281 380.372 647.861 375.267 635.514 375.521C628.399 379.153 626.556 381.223 624.003 389.01C623.764 389.741 623.54 390.476 623.331 391.215Z"/><path fill="#1A415C" transform="scale(1.09301 1.09375)" d="M575.14 370.379C595.719 369.074 602.101 376.178 605.117 395.845C590.747 395.753 576.377 395.801 562.009 395.99C564.642 409.109 572.327 428.643 590.427 422.661C593.947 421.497 596.925 418.389 599.413 415.704C600.49 413.803 601.363 411.533 603.518 411.079L604.233 412.259C604.393 416.96 600.718 424.327 597.572 427.055C568.479 452.291 544.725 416.018 556.465 387.565C560.671 377.369 566.439 374.09 575.14 370.379ZM562.143 391.251L578.484 391.294L590.729 391.243C587.941 381.499 586.792 375.592 575.082 375.449C568.808 378.159 566.229 380.328 563.659 386.926C563.116 388.355 562.61 389.797 562.143 391.251Z"/><path fill="#1A415C" transform="scale(1.09301 1.09375)" d="M362.058 339.454C369.19 339.065 392.242 342.488 382.462 354.652C375.812 362.924 364.114 336.401 356.691 345.781C351.835 351.916 353 364.651 353.092 372.217C357.661 372.133 364.659 371.524 368.261 374.368L368.165 375.449C364.115 378.14 357.923 377.429 353.043 377.336C353.138 389.857 351.3 419.354 355.495 429.242C357.684 430.079 364.329 430.644 369.05 432.266C356.827 433.819 340.381 433.574 327.995 432.724C332.383 430.778 336.684 430.142 340.108 426.835C342.054 423.057 341.437 385.197 341.487 377.359C338.265 377.321 331.089 377.916 330.171 374.278C332.707 371.502 337.806 372.162 341.351 372.22C341.215 354.5 344.217 345.035 362.058 339.454Z"/><path fill="#1A415C" transform="scale(1.09301 1.09375)" d="M659.409 219.501C687.195 220.378 683.707 242.07 673.499 241.856C667.741 238.631 667.447 223.761 659.978 224.219C626.793 226.254 646.687 294.711 675.56 267.46C677.248 264.805 678.959 261.263 681.925 260.562L682.431 261.92C681.147 272.614 670.848 283.29 660.01 284.544C653.648 285.226 647.275 283.362 642.283 279.36C622.839 263.595 629.534 221.989 659.409 219.501Z"/><path fill="#1A415C" transform="scale(1.09301 1.09375)" d="M548.653 219.336C550.765 221.194 548.875 237.382 548.362 240.696C543.555 232.956 540.465 221.629 528.727 224.113C517.524 226.888 521.588 238.184 528.958 242.573C541.878 250.266 563.878 257.22 551.021 276.344C541.76 290.118 525.406 281.549 512.617 283.853C511.932 274.515 511.891 269.546 513.127 260.295C517.746 266.63 520.443 278.888 528.235 280.537C543.238 283.712 550.961 268.814 535.138 260.511C524.264 254.095 508.982 248.868 512.716 233.152C517.785 211.814 539.817 224.799 548.653 219.336Z"/><path fill="#1A415C" transform="scale(1.09301 1.09375)" d="M925.611 521.349C930.805 521.014 936.498 522.437 941.605 523.511C943.455 522.4 944.042 521.878 946.203 521.57C948.434 524.912 946.538 543.145 946.12 548.413C944.309 542.993 941.721 530.404 936.716 527.837C919.744 519.133 911.204 538.688 930.155 546.652C943.254 552.156 958.65 562.159 948.398 578.142C945.033 583.388 940.383 584.812 934.639 586.126C924.825 587.664 922.066 582.936 910.362 585.845C909.81 576.211 909.794 570.391 910.843 560.821C913.885 567.313 916.594 577.198 923.289 580.856C926.659 582.689 930.623 583.09 934.292 581.97C936.45 581.287 939.463 579.383 940.129 577.196C945.3 559.393 914.819 559.899 910.879 545.351C907.279 532.057 914.39 525.214 925.611 521.349Z"/><path fill="#1A415C" transform="scale(1.09301 1.09375)" d="M488.85 221.496C491.113 220.772 493.672 219.692 495.912 218.807C496.368 227.663 496.373 232.904 495.142 241.653C491.376 233.239 489.126 223.514 478.117 223.576C467.412 223.637 465.061 234.477 472.545 240.694C483.192 249.498 507.919 252.93 500.217 272.217C496.689 281.051 490.442 284.046 481.19 284.635C472.944 284.385 467.477 283.028 458.857 283.838C458.43 275.007 458.332 268.495 459.375 259.744C463.569 265.526 464.393 273.532 469.953 277.755C476.661 283.047 493.941 281.754 490.388 269.713C486.41 256.175 462.051 255.75 459.106 241.442C456.757 230.027 464.39 221.82 474.907 219.389C479.396 219.349 484.481 220.52 488.85 221.496Z"/><path fill="#1A415C" transform="scale(1.09301 1.09375)" d="M877.643 521.028C878.731 521.218 878.387 521.181 879.386 521.872C880.874 525.58 880.418 530.144 880.243 534.129C904.747 498.109 913.801 551.556 889.362 529.973C885.322 533.515 883.661 535.561 880.667 539.811C880.235 549.533 879.633 568.012 881.634 577.322C884.045 581.262 888.082 581.473 892.903 582.973C886.661 584.13 865.659 585.24 860.056 583.487L860.124 582.826C862.889 580.961 865.232 579.659 868.134 578.054C869.316 569.632 869.735 543.652 868.079 534.429C867.717 532.412 862.033 530.481 859.699 529.633C860.869 527.048 874.133 522.476 877.643 521.028Z"/><path fill="#1A415C" transform="scale(1.09301 1.09375)" d="M522.483 370.132C527.509 371.045 525.833 378.718 525.679 383.09C529.079 378.368 532.035 373.903 537.493 371.651C545.334 368.415 553.489 372.771 548.439 381.785C545.434 387.795 537.293 378.962 532.211 381.243C528.966 382.359 527.464 386.45 526.634 389.549C525.455 393.954 525.326 398.66 525.316 403.29C525.297 411.844 524.643 420.098 527.729 428.253C530.323 431.164 534.35 429.848 535.992 432.219L535.229 432.972C527.648 433.765 510.352 433.294 502.411 432.897C506.529 430.781 509.602 429.809 513.721 427.176C515.098 411.797 514.819 396.314 512.889 380.993C510.328 380.642 506.902 380.722 505.574 378.432C507.505 375.161 517.958 372.076 522.483 370.132Z"/><path fill="#1A415C" transform="scale(1.09301 1.09375)" d="M806.097 200.354C806.881 200.69 807.229 201.04 807.911 201.557C809.223 205.341 808.593 216.369 808.472 220.665C813.118 220.566 817.794 219.932 821.688 222.527L821.738 223.485C818.245 226.066 812.839 225.339 808.504 225.209C808.437 233.837 806.826 264.917 810.263 273.191C811.593 276.391 820.898 272.79 824.385 272.868L824.343 274.036C822.514 276.952 821.149 277.994 818.558 280.312C815.422 282.284 811.894 284.193 808.067 284.156C805.626 284.15 803.298 283.125 801.645 281.327C794.449 273.648 797.142 237.522 797.312 225.423C793.504 225.225 789.067 225.335 785.206 225.337C797.118 217.293 801.373 214.148 806.097 200.354Z"/><path fill="#1A415C" transform="scale(1.09301 1.09375)" d="M771.719 502.587C775.296 505.269 773.871 518.278 773.721 523.071C777.813 522.749 785.004 522.038 788.177 525.246L788.026 526.365C784.055 529.305 778.647 528.557 773.702 528.472C773.677 542.826 773.178 557.553 774.581 571.811C775.288 578.988 784.965 575.276 789.248 574.434L789.707 575.231C788.499 577.854 787.079 579.195 785.149 581.328C765.381 594.947 762.417 576.012 762.541 560.606C762.628 549.794 762.535 539.308 763.212 528.459L751.098 528.387C757.142 522.841 763.644 519.181 767.578 511.549C769.128 508.541 770.164 505.626 771.719 502.587Z"/><path fill="#1A415C" transform="scale(1.09301 1.09375)" d="M709.167 219.89C710.946 219.842 710.308 219.644 711.844 220.439C714.359 225.919 711.245 266.553 712.783 275.343C713.331 278.475 719.967 281.367 722.858 282.859C715.438 283.884 703.225 283.493 695.461 283.423C693.871 283.489 693.769 283.431 692.227 282.958L692.335 282.101C695.131 280.405 696.978 279.654 700.015 278.383C701.365 262.817 701.155 246.567 700.657 230.939C697.715 229.859 692.291 228.936 689.053 228.284C694.981 224.863 702.652 222.263 709.167 219.89Z"/><path fill="#1A415C" transform="scale(1.09301 1.09375)" d="M848.121 219.257C851.551 220.868 849.399 263.483 849.489 269.604C849.68 282.669 854.913 277.117 858.814 282.538C856.384 284.158 833.76 283.55 829.022 283.532L828.533 283.078L828.602 282.066C830.466 280.522 833.639 280.028 836.085 279.442C836.611 278.294 837.1 277.13 837.455 275.916C838.911 270.95 839.681 235.637 837.459 231.901C835.91 229.296 829.471 228.432 826.726 227.677C832.931 224.388 841.44 221.552 848.121 219.257Z"/><path fill="#1A415C" transform="scale(1.09301 1.09375)" d="M675.851 521.24C680.168 521.182 678.335 529.374 678.499 532.83C679.194 547.407 676.257 563.814 680.312 577.821C681.253 581.073 689.176 582.444 692.347 583.576C683.946 584.516 674.146 584.24 665.602 584.206C663.093 584.241 659.79 584.588 657.697 583.47C658.02 580.943 665.189 580.778 666.165 577.31C669.042 567.08 667.558 541.517 665.577 531.98C662.595 531.366 658.342 530.88 655.239 530.427C662.753 525.98 667.582 524.216 675.851 521.24Z"/><path fill="#1A415C" transform="scale(1.09301 1.09375)" d="M841.965 187.4C844.394 186.582 847.075 187.139 848.976 188.857C850.878 190.575 851.703 193.187 851.136 195.686C850.568 198.186 848.695 200.184 846.238 200.911C842.535 202.008 838.636 199.936 837.472 196.253C836.307 192.57 838.306 188.633 841.965 187.4Z"/><path fill="#1A415C" transform="scale(1.09301 1.09375)" d="M704.65 187.441C706.995 186.461 709.686 186.821 711.691 188.382C713.696 189.944 714.704 192.464 714.329 194.978C713.954 197.492 712.254 199.609 709.881 200.517C706.288 201.891 702.257 200.127 700.828 196.555C699.399 192.983 701.101 188.925 704.65 187.441Z"/><path fill="#1A415C" transform="scale(1.09301 1.09375)" d="M670.249 490.029C673.81 488.564 677.886 490.252 679.369 493.806C680.853 497.36 679.187 501.446 675.642 502.949C672.069 504.464 667.947 502.782 666.452 499.201C664.957 495.619 666.66 491.505 670.249 490.029Z"/><path fill="#245778" transform="scale(1.09301 1.09375)" d="M426.121 581.057C428.521 581.138 431.036 580.925 432.919 582.333L432.842 583.361C430.66 584.74 428.145 584.319 425.494 584.225L426.121 581.057Z"/><path fill="#245778" transform="scale(1.09301 1.09375)" d="M512.532 580.992C514.946 581.132 517.679 580.981 519.54 582.409L519.288 583.409C516.884 584.589 514.872 584.339 512.188 584.309L512.532 580.992Z"/></svg>