<?xml version="1.0" encoding="utf-8" ?><svg xmlns="http://www.w3.org/2000/svg" xmlns:xlink="http://www.w3.org/1999/xlink" width="907" height="312" viewBox="0 0 907 312"><path fill="#003299" transform="matrix(1.3457 0 0 1.34483 0.000976562 0)" d="M24.7895 15.8446C25.0348 14.7266 24.8411 14.6458 25.5507 14.1473C31.0002 13.6436 43.4411 14.0652 49.5585 14.0746L94.1319 13.9839L239.819 13.9889C244.436 13.9899 289.058 13.7437 289.934 14.4662L290.194 15.7864C289.715 18.2272 289.92 31.2004 289.929 34.4661L289.981 73.7196L290.002 152.344C290.005 163.459 289.403 179.818 290.028 190.61C290.036 191.413 290.085 191.681 289.736 192.411C283.301 193 271.237 192.688 264.601 192.681L220.286 192.701L91.4526 192.733L49.0322 192.68C41.5945 192.67 33.2529 192.478 25.8659 192.721C25.0863 191.92 25.31 191.867 25.175 190.55C25.36 188.163 25.1738 182.495 25.1878 179.817C25.2486 170.993 25.2401 162.168 25.1624 153.344L25.045 80.5492L25.1859 36.9673C25.1995 33.254 25.3703 18.7075 24.7895 15.8446Z"/><path fill="#3A60B7" transform="matrix(1.3457 0 0 1.34483 0.000976562 0)" d="M24.7895 15.8446C25.0348 14.7266 24.8411 14.6458 25.5507 14.1473C31.0002 13.6436 43.4411 14.0652 49.5585 14.0746L94.1319 13.9839L239.819 13.9889C244.436 13.9899 289.058 13.7437 289.934 14.4662L290.194 15.7864L289.545 16.4751C287.163 16.9969 271.817 16.8064 268.634 16.8072L219.082 16.8127L92.1271 16.8098C70.4595 16.8096 48.7777 16.8162 27.1096 16.7949C25.5771 16.7934 25.6778 16.7521 24.7895 15.8446Z"/><path fill="#D2E0F6" transform="matrix(1.3457 0 0 1.34483 0.000976562 0)" d="M25.175 190.55L197.895 190.513L257.802 190.515C268.062 190.516 279.848 190.245 290.028 190.61C290.036 191.413 290.085 191.681 289.736 192.411C283.301 193 271.237 192.688 264.601 192.681L220.286 192.701L91.4526 192.733L49.0322 192.68C41.5945 192.67 33.2529 192.478 25.8659 192.721C25.0863 191.92 25.31 191.867 25.175 190.55Z"/><path fill="#FAD003" transform="matrix(1.3457 0 0 1.34483 0.000976562 0)" d="M107.109 64.7498C107.925 65.7003 109.048 68.9974 109.561 70.3345L116.223 70.5025C110.323 74.1727 110.545 74.5521 112.73 80.9644C110.524 79.356 109.244 78.3765 106.764 77.162C106.181 77.3541 102.399 80.29 101.524 80.8958C102.559 78.7489 103.074 77.3192 103.846 75.0964C102.696 73.8405 99.986 71.5898 98.6155 70.3829L104.686 70.089L107.109 64.7498Z"/><path fill="#FAD003" transform="matrix(1.3457 0 0 1.34483 0.000976562 0)" d="M186.341 144.018C187.257 144.697 188.033 148.743 188.348 150.065C191.22 150.358 192.782 150.223 195.598 149.964C193.551 151.536 192.041 152.766 190.114 154.497C190.844 157.108 191.195 158.158 192.301 160.668C190.441 159.395 188.17 157.765 186.125 156.924C184.664 157.667 182.004 159.823 180.598 160.897C181.467 159.007 182.301 156.921 183.114 154.992C181.604 153.347 179.201 151.46 177.441 149.99C180.167 150.273 181.67 150.264 184.383 150.203C184.836 148.131 185.424 145.926 186.341 144.018Z"/><path fill="#FAD003" transform="matrix(1.3457 0 0 1.34483 0.000976562 0)" d="M157.439 152.216C158.319 152.842 159.125 156.464 160.025 157.31C161.078 158.301 164.102 157.873 165.608 157.772L161.423 161.977C161.97 164.079 162.541 166.174 163.136 168.264C161.273 166.781 159.755 165.584 157.566 164.629C155.645 165.314 153.499 166.964 151.794 168.169C152.581 166.166 153.357 164.158 154.121 162.147L149.188 157.863L154.863 158.027C155.692 155.936 156.353 154.207 157.439 152.216Z"/><path fill="#FAD003" transform="matrix(1.3457 0 0 1.34483 0.000976562 0)" d="M128.712 143.512L130.277 149.53C132.294 150.838 134.761 150.19 137.137 149.871C135.292 151.579 133.651 153.061 132.201 155.157C132.7 157.09 133.031 158.272 133.759 160.122C128.764 156.748 127.973 156.762 123.075 160.265C123.713 158.578 124.592 156.428 125.064 154.734C123.189 152.922 121.38 151.763 119.243 150.304C121.939 150.359 123.907 150.295 126.597 150.122C126.703 147.595 127.661 145.754 128.712 143.512Z"/><path fill="#FDBD00" transform="matrix(1.3457 0 0 1.34483 0.000976562 0)" d="M128.712 143.512L130.277 149.53C129.676 149.625 126.934 150.118 126.597 150.122C126.703 147.595 127.661 145.754 128.712 143.512Z"/><path fill="#FAD003" transform="matrix(1.3457 0 0 1.34483 0.000976562 0)" d="M207.705 64.3632C208.563 65.6006 209.57 68.5527 210.149 70.0753L215.889 70.3459C214.137 71.9934 212.871 73.1411 211.373 75.0576C211.826 77.2963 212.233 78.4298 213.033 80.588C211.174 79.063 209.262 76.9661 206.782 77.5632C205.208 78.7845 203.546 79.952 201.926 81.1162C202.884 78.8006 203.495 77.0624 204.262 74.6964C202.457 72.8191 200.31 71.6089 198.115 70.2375C200.514 70.2684 202.913 70.3152 205.312 70.378C206.197 68.5516 206.982 66.2891 207.705 64.3632Z"/><path fill="#FAD003" transform="matrix(1.3457 0 0 1.34483 0.000976562 0)" d="M99.1797 93.3602C100.228 94.1521 101.033 97.6507 101.4 99.033C103.627 99.089 105.848 99.2805 108.069 99.4515C106.208 100.81 104.742 101.858 103.046 103.449C103.343 104.819 104.508 107.959 105.001 109.412C103.355 108.25 101.35 106.715 99.5304 105.956C97.8847 106.581 95.413 108.529 93.9019 109.625C94.4332 107.745 95.2885 105.497 95.9448 103.623C94.0118 101.735 92.5486 100.826 90.3239 99.3461C92.5051 99.1106 95.0441 99.1548 97.2635 99.1377L99.1797 93.3602Z"/><path fill="#FAD003" transform="matrix(1.3457 0 0 1.34483 0.000976562 0)" d="M215.288 93.3356C215.787 93.7997 216.869 97.4061 218.211 99.2156C220.303 99.071 221.998 99.0821 224.079 99.1132C222.2 100.625 220.751 101.748 219.096 103.536C219.647 105.774 220.187 107.174 221.01 109.296C218.969 107.914 217.629 106.982 215.379 105.901C213.988 105.882 211.3 108.698 210.168 109.748C210.631 107.685 211.358 105.366 211.951 103.313L206.41 99.5431C208.958 99.0987 210.544 99.0514 213.098 98.9638L215.288 93.3356Z"/><path fill="#FAD003" transform="matrix(1.3457 0 0 1.34483 0.000976562 0)" d="M207.567 123.272C208.58 123.861 209.408 127.753 209.763 129.065L216.247 128.992L211.434 132.867C211.689 134.656 212.317 137.038 212.739 138.844C210.823 137.565 209.63 136.665 207.441 135.842C206.078 136.427 203.613 138.345 202.314 139.29C203.239 136.72 203.55 135.716 204.084 133.007C202.492 131.61 200.322 130.226 198.541 129.019C200.841 128.948 203.006 129.014 205.301 129.077C206.364 126.812 206.865 125.724 207.567 123.272Z"/><path fill="#FAD003" transform="matrix(1.3457 0 0 1.34483 0.000976562 0)" d="M128.296 43.6337C128.873 44.0906 130.333 48.3854 130.971 49.6914C132.872 49.4605 134.73 49.3984 136.64 49.3138C135.173 50.4739 133.757 51.9608 132.425 53.2942C132.696 55.2599 133.16 57.1987 133.593 59.1357C131.854 57.973 129.927 56.6091 127.955 55.9841C126.13 57.45 125.014 58.1224 122.972 59.237L124.932 53.5587C123.837 52.6067 121.904 51.1125 121.303 49.8977L121.524 49.379C122.673 48.9209 124.557 49.3153 125.867 49.4811C126.663 47.8352 127.582 45.3777 128.296 43.6337Z"/><path fill="#FAD003" transform="matrix(1.3457 0 0 1.34483 0.000976562 0)" d="M107.1 123.339C107.633 123.785 109.172 128.127 109.514 129.035C111.541 129.071 113.93 128.962 115.985 128.92C114.554 130.254 112.604 131.598 110.999 132.769C111.415 134.882 111.859 136.988 112.33 139.089C110.505 137.523 109.297 136.688 107.07 135.826C105.189 136.653 103.548 138.096 101.954 139.393C102.537 137.318 103.103 135.238 103.652 133.154C102.311 131.868 100.294 130.253 98.8409 129.015C101.085 128.967 102.225 129.046 104.46 129.308C105.633 127.123 106.218 125.622 107.1 123.339Z"/><path fill="#FAD003" transform="matrix(1.3457 0 0 1.34483 0.000976562 0)" d="M157.482 36.0658C158.325 36.6729 159.029 39.9936 159.529 40.6781C160.273 41.6964 164.493 41.7167 165.859 41.7905C164.368 43.0539 162.884 44.3272 161.409 45.6103C161.774 47.9727 162.013 48.8988 162.77 51.1705C160.987 49.9708 159.27 48.9371 157.206 48.326C154.98 49.4489 154.134 49.9251 152.156 51.4195C152.798 49.5698 153.391 47.7034 153.934 45.8223C152.423 44.1816 150.5 42.9488 148.609 41.8094C151.313 41.7888 152.422 41.6744 155.061 41.2781C155.889 39.8597 156.797 37.6244 157.482 36.0658Z"/><path fill="#FAD003" transform="matrix(1.3457 0 0 1.34483 0.000976562 0)" d="M186.424 43.6344C186.971 44.023 188.551 48.1682 189.236 49.4811C191 49.3488 192.765 49.2301 194.531 49.125C193.054 50.4446 191.624 51.9458 190.229 53.3623C190.723 55.3165 191.244 57.2637 191.792 59.2032C189.951 57.8868 188.64 56.9502 186.64 55.8426C185.188 56.6069 182.622 58.3936 181.164 59.3453L182.982 53.4142C181.38 52.0933 179.718 50.5863 178.143 49.2132C180.499 49.2936 181.653 49.3655 183.956 49.799L186.424 43.6344Z"/><path fill="#10134B" transform="matrix(1.3457 0 0 1.34483 0.000976562 0)" d="M461.431 122.23C462.975 122.325 465.955 122.431 467.369 122.005C483.178 117.244 484.31 144.331 469.655 143.161C468.207 143.034 466.766 142.83 465.34 142.549C465.356 144.564 465.491 149.204 465.09 151.018C463.551 150.97 462.822 151.205 461.672 150.486C460.888 143.971 461.725 129.964 461.431 122.23ZM472.468 139.278C474.674 137.493 475.709 136.093 475.915 133.148C476.262 128.176 474.295 124.386 468.751 124.796C467.642 124.988 466.538 125.039 465.779 125.847C465.19 128.228 465.161 136.077 465.657 138.527C466.914 140.335 470.654 139.836 472.468 139.278Z"/><path fill="#000008" transform="matrix(1.3457 0 0 1.34483 0.000976562 0)" d="M461.672 150.486C461.772 148.643 461.652 143.629 462.05 142.314C463.158 143.196 464.041 142.248 464.855 143.149C465.284 145.805 464.852 148.344 465.09 151.018C463.551 150.97 462.822 151.205 461.672 150.486Z"/><defs><linearGradient id="gradient_0" gradientUnits="userSpaceOnUse" x1="428.23602" y1="78.103661" x2="445.6727" y2="80.111649"><stop offset="0" stop-color="#000005"/><stop offset="1" stop-color="#141958"/></linearGradient></defs><path fill="url(#gradient_0)" transform="matrix(1.3457 0 0 1.34483 0.000976562 0)" d="M440.767 73.6698C443.027 73.1108 440.153 66.9454 442.528 64.3958C443.596 64.0936 444.658 64.32 445.222 65.3021C445.351 71.2967 445.811 86.6124 445.211 93.421C444.99 93.6582 444.803 93.8603 444.647 94.0272C443.27 94.5035 441.746 93.4132 441.039 93.4751C437.851 93.7541 436.437 94.9249 433.066 93.7482C430.894 93.0075 429.117 91.4126 428.148 89.3321C425.244 83.2184 428.016 75.8807 434.147 72.9592C435.887 72.7562 439.512 72.1988 440.767 73.6698ZM439.803 76.1864C437.532 75.9392 436.339 75.7886 434.104 76.5007C431.286 79.989 429.535 84.3833 432.38 88.7802C433.96 91.2218 438.309 92.0154 440.759 90.148C441.994 88.4809 441.453 85.0753 441.448 82.9566C441.442 80.2209 442.142 77.9325 439.803 76.1864Z"/><path fill="#000008" transform="matrix(1.3457 0 0 1.34483 0.000976562 0)" d="M434.147 72.9592C435.887 72.7562 439.512 72.1988 440.767 73.6698C440.627 74.6987 440.763 75.6267 439.803 76.1864C437.532 75.9392 436.339 75.7886 434.104 76.5007C433.669 75.0135 435.972 75.2849 436.512 73.9689C435.94 73.2865 435.024 73.1727 434.147 72.9592Z"/><path fill="#000008" transform="matrix(1.3457 0 0 1.34483 0.000976562 0)" d="M338.715 72.8287C341.456 72.7075 343.601 72.4667 346.183 73.8435C351.491 76.6407 352.187 84.7173 349.526 89.5306C348.108 92.0961 346.257 93.3185 343.503 94.0808C332.581 95.2867 328.305 87.0043 332.497 77.0695C333.473 74.7564 336.331 73.407 338.715 72.8287ZM340.858 91.6013C349.259 90.5329 349.328 76.5759 341.571 75.4082C339.23 75.8119 337.618 76.0662 336.107 78.2201C333.71 81.6375 333.981 87.841 337.425 90.5153C338.064 91.0115 340.014 91.4103 340.858 91.6013Z"/><path fill="#10134B" transform="matrix(1.3457 0 0 1.34483 0.000976562 0)" d="M626.678 143.182C625.939 143.054 624.761 142.68 624.07 142.341C622.002 141.326 620.436 139.513 619.73 137.32C618.045 132.198 618.964 123.593 625.24 121.917C636.234 118.98 641.243 129.848 636.434 138.868C633.987 142.86 631.145 143.379 626.678 143.182ZM633.669 136.049C634.364 130.443 633.013 120.353 625.727 125.923C621.584 129.09 621.308 139.336 629.08 140.264C631.963 139.224 632.272 138.677 633.669 136.049Z"/><path fill="#050635" transform="matrix(1.3457 0 0 1.34483 0.000976562 0)" d="M633.669 136.049L634.622 136.961L634.575 137.442C633.726 137.982 631.753 140.143 631.521 141.082L632.061 141.773C633.502 141.767 635.122 139.203 636.053 138.029C636.458 138.482 636.356 138.261 636.434 138.868C633.987 142.86 631.145 143.379 626.678 143.182C626.772 140.769 627.023 141.162 629.08 140.264C631.963 139.224 632.272 138.677 633.669 136.049Z"/><path fill="#10134B" transform="matrix(1.3457 0 0 1.34483 0.000976562 0)" d="M441.487 140.668C438.21 136.351 437.336 126.48 442.509 123.23C451.5 117.581 459.812 125.223 457.582 135.108C457.024 137.768 456.336 139.344 454.406 140.967C450.233 144.291 445.484 144.257 441.487 140.668ZM452.059 138.571C454.125 134.913 454.912 127.833 450.739 125.352C449.608 124.692 448.262 124.508 446.995 124.839C442.002 126.126 442.385 133.4 443.436 137.216C445.563 140.552 448.988 140.843 452.059 138.571Z"/><path fill="#000008" transform="matrix(1.3457 0 0 1.34483 0.000976562 0)" d="M441.487 140.668C441.308 138.899 441.729 137.811 443.436 137.216C445.563 140.552 448.988 140.843 452.059 138.571C452.922 138.705 453.542 139.286 454.235 139.824C454.334 140.286 454.373 140.496 454.406 140.967C450.233 144.291 445.484 144.257 441.487 140.668Z"/><path fill="#10134B" transform="matrix(1.3457 0 0 1.34483 0.000976562 0)" d="M497.028 142.729C495.098 143.044 492.411 143.413 490.508 142.987C477.179 140.006 481.497 117.858 495.616 121.876C498.703 122.755 499.287 123.109 501.008 125.896C501.981 128.111 502.153 129.875 502.165 132.293C499.523 132.993 490.3 132.526 486.448 132.882C487.195 138.756 489.247 139.722 494.644 139.896C496.023 139.503 497.866 138.619 498.928 138.869C499.69 139.745 499.473 139.399 499.671 140.667C499.071 142.016 498.504 142.158 497.028 142.729ZM497.331 126.753C493.824 123.231 487.349 124.786 486.795 129.044L487.081 129.629L488.656 129.85C490.78 129.887 496.689 130.746 497.986 129.249C498.101 128.002 497.879 127.985 497.331 126.753Z"/><path fill="#050635" transform="matrix(1.3457 0 0 1.34483 0.000976562 0)" d="M497.331 126.753C498.42 125.53 499.51 125.805 501.008 125.896C501.981 128.111 502.153 129.875 502.165 132.293C498.623 131.886 492.115 133.284 489.033 131.74C488.724 131.586 488.707 130.356 488.656 129.85C490.78 129.887 496.689 130.746 497.986 129.249C498.101 128.002 497.879 127.985 497.331 126.753Z"/><path fill="#050635" transform="matrix(1.3457 0 0 1.34483 0.000976562 0)" d="M494.644 139.896C496.023 139.503 497.866 138.619 498.928 138.869C499.69 139.745 499.473 139.399 499.671 140.667C499.071 142.016 498.504 142.158 497.028 142.729C496.097 142.42 495.674 142.179 494.811 141.704C494.293 140.711 494.382 141.12 494.644 139.896Z"/><path fill="#10134B" transform="matrix(1.3457 0 0 1.34483 0.000976562 0)" d="M561.472 113.432L565.319 113.522C565.404 117.189 561.55 148.095 575.455 138.529C579.127 136.002 577.451 119.547 577.775 113.537C578.856 113.485 580.264 113.27 581.154 113.788C581.806 114.616 581.628 116.315 581.629 117.451C581.555 123.557 583.106 136.114 578.85 140.646C574.548 145.227 562.681 144.051 561.876 136.387C561.095 128.957 561.453 120.984 561.472 113.432Z"/><path fill="#10134B" transform="matrix(1.3457 0 0 1.34483 0.000976562 0)" d="M324.579 112.536C326.042 112.499 326.297 112.272 327.492 112.902C328.824 115.129 328.271 120.299 328.266 123.228C330.843 121.956 333.806 121 336.705 121.724C338.388 122.129 339.826 123.216 340.675 124.724C342.286 127.538 342.394 140.001 341.767 142.333C340.729 143.323 338.561 142.995 337.542 142.067C337.038 140.055 337.249 133.915 337.255 131.537C337.098 130.053 337.087 128.284 336.595 126.948C335.973 125.258 332.144 123.925 330.72 124.841C325.927 127.925 329.338 138.576 327.857 142.595C326.648 143.161 325.755 143.064 324.667 142.398C323.988 141.169 324.085 115.256 324.579 112.536Z"/><path fill="#10134B" transform="matrix(1.3457 0 0 1.34483 0.000976562 0)" d="M514.715 121.66C523.552 123.162 520.667 131.752 521.284 138.204C521.409 139.508 522.849 141.229 522.6 142.656C521.495 143.415 521.976 143.288 520.664 143.243C519.303 142.518 518.108 140.82 516.96 141.396C514.244 142.758 510.864 144.444 508.046 142.578C502.731 139.06 503.78 131.367 510.579 130.137C512.658 129.761 516.703 129.796 517.305 128.868C516.703 125.164 514.631 124.536 511.301 124.973C513.788 123.603 512.768 123.333 514.715 121.66ZM513.173 139.996C518.308 138.445 517.619 137.086 517.324 132.278C516.028 132.315 514.175 132.311 512.929 132.421C510.637 133.164 507.921 134.865 508.815 137.728C509.074 138.537 509.651 139.205 510.414 139.577C511.088 139.91 512.398 139.986 513.173 139.996Z"/><path fill="#10134B" transform="matrix(1.3457 0 0 1.34483 0.000976562 0)" d="M352.958 121.837C361.447 120.64 365.059 124.127 365.286 132.42C361.576 132.79 356.926 132.728 353.126 132.769C351.967 132.845 350.807 132.911 349.646 132.968C350.552 136.215 350.907 137.929 353.998 139.73L353.542 140.083L353.537 140.261C353.497 141.395 352.968 142.323 353.072 142.91C343.185 140.061 343.022 125.652 352.958 121.837ZM353.533 129.869C355.647 129.958 361.325 130.713 361.473 127.89C360.642 126.388 358.374 125.077 356.765 124.49C354.445 124.863 350.295 126.062 350.171 128.913C351.123 130.049 352.113 129.843 353.533 129.869Z"/><path fill="#000008" transform="matrix(1.3457 0 0 1.34483 0.000976562 0)" d="M352.958 121.837C361.447 120.64 365.059 124.127 365.286 132.42C361.576 132.79 356.926 132.728 353.126 132.769C353.304 131.848 353.413 130.808 353.533 129.869C355.647 129.958 361.325 130.713 361.473 127.89C360.642 126.388 358.374 125.077 356.765 124.49C355.948 123.968 354.396 124.624 353.167 123.792C352.734 122.931 352.77 122.793 352.958 121.837Z"/><defs><linearGradient id="gradient_1" gradientUnits="userSpaceOnUse" x1="376.82986" y1="131.19548" x2="400.16016" y2="119.29886"><stop offset="0" stop-color="#010223"/><stop offset="1" stop-color="#001"/></linearGradient></defs><path fill="url(#gradient_1)" transform="matrix(1.3457 0 0 1.34483 0.000976562 0)" d="M398.325 113.516L398.077 117.455C393.764 117.508 389.45 117.523 385.136 117.5C385.456 120.156 385.381 123.001 385.378 125.687C387.381 125.674 392.493 125.443 394.087 125.805C394.783 126.575 394.552 126.576 394.6 127.902C393.162 129.841 387.658 129.113 385.283 129.038C385.292 130.085 385.398 134 385.28 134.818C385.34 136.352 385.488 137.734 385.04 139.205C383.004 141.662 385.069 141.993 381.844 142.298C381.678 142.313 381.512 142.328 381.346 142.342C381.55 132.868 381.422 123.036 381.437 113.534L398.325 113.516Z"/><path fill="#10134B" transform="matrix(1.3457 0 0 1.34483 0.000976562 0)" d="M385.28 134.818C384.74 133.951 385.002 119.535 385.136 117.5C385.456 120.156 385.381 123.001 385.378 125.687C387.381 125.674 392.493 125.443 394.087 125.805C394.783 126.575 394.552 126.576 394.6 127.902C393.162 129.841 387.658 129.113 385.283 129.038C385.292 130.085 385.398 134 385.28 134.818Z"/><path fill="#050635" transform="matrix(1.3457 0 0 1.34483 0.000976562 0)" d="M485.703 73.3693C486.775 71.7456 484.752 66.8571 486.665 64.6504C487.743 64.4811 488.091 64.3653 489.064 64.8088C489.747 65.6838 489.838 92.9133 488.994 93.9933C487.628 94.305 485.85 93.1325 485.591 93.225C479.213 95.5058 473.465 94.3617 471.638 87.1491C471.297 85.8059 471.226 82.7834 471.757 81.3492L472.027 81.645C473.449 80.8667 474.129 81.4146 475.892 80.0276C474.44 85.1914 476.276 91.4714 482.596 91.316C487.515 91.1951 485.591 81.1972 485.717 78.1486C485.75 77.3756 484.827 76.6119 484.224 76.1895C485.278 75.5474 485.05 74.9335 485.703 73.3693Z"/><path fill="#10134B" transform="matrix(1.3457 0 0 1.34483 0.000976562 0)" d="M642.046 134.754C641.988 131.946 641.287 123.993 642.704 122.065C644.832 121.588 645.255 123.995 646.298 123.466C648.726 122.236 649.029 121.282 651.97 121.415C661.186 121.832 658.48 133.665 658.767 139.717C658.799 140.373 658.715 141.642 658.616 142.292C657.959 142.845 656.931 142.994 656.102 142.844C654.713 141.345 655.094 138.787 655.115 136.63C655.038 130.429 655.727 120.292 646.146 126.616C645.474 131.5 646.109 139.49 645.461 142.8C643.781 142.796 643.382 143.019 642.338 142.012C641.56 140.08 641.962 137.012 642.046 134.754Z"/><path fill="#000008" transform="matrix(1.3457 0 0 1.34483 0.000976562 0)" d="M642.046 134.754C642.348 133.499 642.324 132.718 643.121 131.847C644.067 131.854 644.494 132.331 645.246 132.934C645.295 135.83 645.242 139.967 645.461 142.8C643.781 142.796 643.382 143.019 642.338 142.012C641.56 140.08 641.962 137.012 642.046 134.754Z"/><path fill="#000008" transform="matrix(1.3457 0 0 1.34483 0.000976562 0)" d="M655.115 136.63C656.279 136.216 657.166 135.938 658.358 135.608C658.42 137.512 658.422 140.475 658.616 142.292C657.959 142.845 656.931 142.994 656.102 142.844C654.713 141.345 655.094 138.787 655.115 136.63Z"/><path fill="#10134B" transform="matrix(1.3457 0 0 1.34483 0.000976562 0)" d="M530.531 123.441C534.813 121.392 540.185 119.91 542.69 124.949C544.175 127.939 544.015 139.65 543.434 142.581C542.238 143.11 541.446 143.212 540.371 142.52C539.679 140.967 539.973 138.039 540.013 136.235C539.976 128.939 540.935 121.225 531.008 126.437C530.554 131.131 530.991 135.992 530.834 140.713C530.767 142.714 529.335 143.359 527.57 142.757C526.595 140.89 526.766 124.284 527.215 122.555C528.493 121.763 529.61 122.363 530.531 123.441Z"/><path fill="#000008" transform="matrix(1.3457 0 0 1.34483 0.000976562 0)" d="M540.013 136.235C540.959 134.622 541.684 134.3 543.15 133.177C543.247 135.804 543.212 140.164 543.434 142.581C542.238 143.11 541.446 143.212 540.371 142.52C539.679 140.967 539.973 138.039 540.013 136.235Z"/><path fill="#10134B" transform="matrix(1.3457 0 0 1.34483 0.000976562 0)" d="M453.776 74.1834C454.29 75.0254 454.752 75.7431 455.144 76.6586L455.488 76.8502L453.09 79.9584L453.272 80.9628C453.777 81.2179 453.858 81.2726 454.421 81.2667C457.12 81.2512 460.083 81.1806 462.756 81.2639L462.055 83.4341C463.452 83.4442 465.758 83.3957 467.056 83.6132C464.624 84.0769 455.628 83.8686 452.919 83.7722C453.096 84.3402 453.283 84.9051 453.48 85.4668C457.416 96.6537 465.218 86.7644 466.423 91.1465C464.625 96.9099 445.87 95.7037 449.659 80.6882C450.386 77.8081 451.344 75.9264 453.776 74.1834Z"/><path fill="#01011E" transform="matrix(1.3457 0 0 1.34483 0.000976562 0)" d="M453.776 74.1834C454.29 75.0254 454.752 75.7431 455.144 76.6586L455.488 76.8502L453.09 79.9584C451.882 79.6232 452.295 79.5875 451.161 79.8656C450.787 80.3316 450.522 80.7551 449.997 81.0212L449.659 80.6882C450.386 77.8081 451.344 75.9264 453.776 74.1834Z"/><path fill="#050635" transform="matrix(1.3457 0 0 1.34483 0.000976562 0)" d="M454.421 81.2667C457.12 81.2512 460.083 81.1806 462.756 81.2639L462.055 83.4341C458.17 83.4155 456.64 84.7997 454.421 81.2667Z"/><path fill="#01011E" transform="matrix(1.3457 0 0 1.34483 0.000976562 0)" d="M310.335 89.8279C304.656 83.5883 307.047 67.6081 316.294 65.6841C318.532 65.2186 323.958 64.9117 325.956 66.0704C326.396 66.8984 326.332 67.2333 326.3 68.1813C324.334 70.6153 315.883 63.8953 312.214 74.3038C310.785 78.4215 311.012 82.9331 312.846 86.8871C311.742 87.1877 311.273 87.3105 310.14 87.4096C309.84 88.2988 310.783 88.4943 310.335 89.8279Z"/><path fill="#050635" transform="matrix(1.3457 0 0 1.34483 0.000976562 0)" d="M313.287 142.787C307.026 140.04 311.101 129.833 309.406 125.228C308.823 125.026 308.242 124.817 307.663 124.602C307.32 123.685 307.415 123.964 307.645 122.894C308.282 122.472 308.698 122.257 309.371 121.916C311.017 119.148 307.101 119.439 312.664 116.16C313.635 117.275 313.362 120.385 313.361 122.041C315.318 121.983 317.67 121.539 318.954 123.225C318.825 125.617 315.267 125.09 313.513 125.046C313.421 128.378 312.813 136.812 314.34 139.419C313.869 141.203 314.368 140.906 313.287 142.787Z"/><path fill="#10134B" transform="matrix(1.3457 0 0 1.34483 0.000976562 0)" d="M589.578 122.565C590.518 123.108 590.644 123.313 591.737 122.93C595.731 121.532 602.041 119.801 603.125 125.82C603.773 129.419 604.338 139.125 603.37 142.464C601.769 142.871 601.182 143.21 599.87 142.208C599.47 138.249 601.769 125.099 595.928 125.026C591.336 124.969 590.99 126.68 590.897 130.583C589.913 129.201 589.576 124.315 589.578 122.565Z"/><path fill="#050635" transform="matrix(1.3457 0 0 1.34483 0.000976562 0)" d="M599.87 142.208C599.927 140.889 599.808 139.277 600.616 138.311C601.514 137.816 601.167 137.832 602.036 138.082C603.493 139.583 603.338 140.4 603.37 142.464C601.769 142.871 601.182 143.21 599.87 142.208Z"/><path fill="#10134B" transform="matrix(1.3457 0 0 1.34483 0.000976562 0)" d="M371.378 71.3627C372.981 70.6211 372.982 71.0697 374.693 71.1026L374.724 72.3794C376.628 74.0072 380.291 72.1251 379.275 75.8725C378.159 76.5181 376.381 76.3349 375.057 76.2115C374.847 81.5118 375.072 86.9256 374.972 92.2307C374.959 92.8736 374.545 93.2363 374.161 93.7476C373.061 94.2367 373.438 94.2425 372.325 94.0846C370.005 91.65 371.755 80.807 371.316 77.235C371.079 75.3095 368.271 77.8843 368.317 74.1505C369.421 72.4547 370.307 73.9156 371.271 72.5756L371.378 71.3627Z"/><path fill="#000008" transform="matrix(1.3457 0 0 1.34483 0.000976562 0)" d="M416.299 75.6786C404.236 75.6747 413.911 92.2747 408.205 94.1779C407.932 94.1294 406.925 93.9983 406.897 93.8802C406.078 90.5309 406.248 76.0772 406.772 73.3904L407.21 73.1236C409.157 73.307 409.093 73.4991 409.792 75.1944C411.357 75.2741 412.477 71.3196 419.345 73.2449C418.752 74.537 418.871 74.7764 417.809 75.5653L416.299 75.6786Z"/><path fill="#01011E" transform="matrix(1.3457 0 0 1.34483 0.000976562 0)" d="M404.38 141.882C404.058 141.35 403.227 139.906 403.08 139.403C402.21 136.422 401.771 125.038 402.89 122.555C403.777 121.891 403.416 122.052 404.683 122.156C409.056 125.502 400.975 145.732 413.842 138.682C415.034 139.668 414.819 139.237 415.264 140.554C411.893 143.79 408.414 143.77 404.38 141.882Z"/><path fill="#050635" transform="matrix(1.3457 0 0 1.34483 0.000976562 0)" d="M507.38 94.1779C506.868 91.679 506.539 67.6289 507.133 65.9912C507.469 65.0648 507.932 64.8632 508.761 64.4718C512.761 64.76 509.304 71.712 511.012 73.6557C511.673 74.6333 512.263 75.6106 513.53 75.8139L510.753 76.758C510.725 79.7334 510.887 86.8795 510.589 89.5423C509.592 89.1341 509.447 89.072 508.375 89.0954C506.918 90.3739 507.549 92.3376 507.38 94.1779Z"/><path fill="#050635" transform="matrix(1.3457 0 0 1.34483 0.000976562 0)" d="M534.702 93.0235C533.173 87.5824 529.562 80.5363 527.723 75.0568C527.441 74.2176 527.627 73.9435 527.991 73.3192C532.449 72.0725 534.887 85.4439 537.01 89.0563L537.115 89.2302L537.495 88.2606C537.892 89.2417 538.302 89.3783 539.251 89.9084C539.532 89.5577 539.747 89.3908 540.237 89.525C539.591 91.9112 538.106 95.9327 537.045 98.1618C536.779 96.4132 536.213 96.5424 534.688 96.1294C534.892 94.9049 534.8 94.237 534.702 93.0235Z"/><path fill="#000008" transform="matrix(1.3457 0 0 1.34483 0.000976562 0)" d="M396.862 92.0031C389.458 98.1322 383.392 92.2849 384.203 84.3167C384.527 81.1389 383.763 76.8767 384.582 73.6875C385.34 73.1665 385.497 73.0031 386.409 73.0058C390.792 76.0621 382.875 94.417 394.56 90.6431C395.729 90.9921 395.927 91.1943 396.862 92.0031Z"/><path fill="#10134B" transform="matrix(1.3457 0 0 1.34483 0.000976562 0)" d="M413.842 138.682C416.206 136.584 415.356 135.542 415.61 132.613C415.816 130.231 414.343 120.404 418.868 122.154C419.948 124.848 420.331 140.914 418.311 143.005C415.869 143.769 415.875 141.57 415.264 140.554C414.819 139.237 415.034 139.668 413.842 138.682Z"/><path fill="#01011E" transform="matrix(1.3457 0 0 1.34483 0.000976562 0)" d="M608.777 122.139C610.71 122.083 612.644 122.054 614.578 122.049C614.835 127.894 614.685 135.985 614.397 141.96C614.378 142.366 614.106 142.411 613.69 142.681C612.828 142.774 612.11 142.964 611.412 142.478C610.597 141.297 610.937 128.001 610.836 125.529C610.571 125.478 610.307 125.421 610.045 125.358C608.834 125.063 608.348 124.738 607.771 123.79C608.028 122.676 607.888 123.045 608.777 122.139Z"/><path fill="#10134B" transform="matrix(1.3457 0 0 1.34483 0.000976562 0)" d="M431.728 125.119C425.854 127.027 430.358 139.149 427.589 142.574C426.412 143.139 426.845 143.001 425.418 142.884C424.475 141.986 424.605 124.268 425.1 122.323C426.834 121.405 427.963 122.397 429.421 123.468C430.107 124.695 430.227 124.872 431.728 125.119Z"/><path fill="#10134B" transform="matrix(1.3457 0 0 1.34483 0.000976562 0)" d="M397.565 73.3226C398.701 73.2317 400.16 72.9591 401.109 73.484C401.668 76.253 401.356 90.3495 401.046 93.5964C400.036 94.3533 400.479 94.1648 399.217 94.3454C397.901 93.7683 397.547 93.4003 397.371 91.9661L396.862 92.0031C395.927 91.1943 395.729 90.9921 394.56 90.6431C395.54 89.9247 396.532 89.2226 397.535 88.5368C397.702 83.5084 397.607 78.3625 397.565 73.3226Z"/><path fill="#050635" transform="matrix(1.3457 0 0 1.34483 0.000976562 0)" d="M419.345 73.2449C423.79 75.5825 423.34 82.2794 423.293 86.6657C423.258 89.9224 424.431 94.2623 420.246 93.9502C417.411 91.8581 422.231 77.3088 416.299 75.6786L417.809 75.5653C418.871 74.7764 418.752 74.537 419.345 73.2449Z"/><path fill="#050635" transform="matrix(1.3457 0 0 1.34483 0.000976562 0)" d="M587.333 141.944C587.28 141.438 587.236 140.93 587.2 140.422C586.96 136.818 586.916 126.951 587.051 122.779C587.268 122.529 587.453 122.317 587.605 122.142C588.487 121.963 588.768 122.17 589.578 122.565C589.576 124.315 589.913 129.201 590.897 130.583C590.805 132.653 590.746 140.291 590.523 141.624C589.961 142.892 589.309 142.97 587.961 142.746C587.69 142.482 587.434 142.299 587.333 141.944Z"/><path fill="#000008" transform="matrix(1.3457 0 0 1.34483 0.000976562 0)" d="M587.333 141.944C587.361 139.562 587.159 138.024 587.856 135.747L588.527 136.353C588.99 136.063 589.291 135.631 589.644 135.205L590.063 135.309C590.527 136.488 590.418 139.99 590.523 141.624C589.961 142.892 589.309 142.97 587.961 142.746C587.69 142.482 587.434 142.299 587.333 141.944Z"/><path fill="#000008" transform="matrix(1.3457 0 0 1.34483 0.000976562 0)" d="M310.335 89.8279C310.783 88.4943 309.84 88.2988 310.14 87.4096C311.273 87.3105 311.742 87.1877 312.846 86.8871C318.737 95.2064 322.993 88.5365 327.198 89.244C328.027 90.5868 326.562 92.7146 325.291 93.2908C320.775 95.3372 313.071 94.3207 310.335 89.8279Z"/><path fill="#050635" transform="matrix(1.3457 0 0 1.34483 0.000976562 0)" d="M521.043 74.3019C526.243 78.8661 526.787 86.4379 522.188 91.5834C522.064 91.7243 521.937 91.8626 521.807 91.9982C521.25 91.1739 520.639 89.7221 520.205 88.7786L520.255 88.6653C522.067 84.5369 521.743 82.3385 520.193 78.3701C520.675 77.4775 520.117 76.3899 521.043 74.3019Z"/><path fill="#000008" transform="matrix(1.3457 0 0 1.34483 0.000976562 0)" d="M537.495 88.2606C538.562 84.9455 541.402 72.689 545.257 73.0938C546.189 74.9647 541.318 87.1873 540.237 89.525C539.747 89.3908 539.532 89.5577 539.251 89.9084C538.302 89.3783 537.892 89.2417 537.495 88.2606Z"/><path fill="#050635" transform="matrix(1.3457 0 0 1.34483 0.000976562 0)" d="M381.346 142.342C381.512 142.328 381.678 142.313 381.844 142.298C385.069 141.993 383.004 141.662 385.04 139.205C387.407 140.157 397.123 138.942 398.323 139.746C398.41 140.645 398.58 141.488 398.177 142.292C397.028 143.01 382.25 143.176 381.346 142.342Z"/><path fill="#000008" transform="matrix(1.3457 0 0 1.34483 0.000976562 0)" d="M507.38 94.1779C507.549 92.3376 506.918 90.3739 508.375 89.0954C509.447 89.072 509.592 89.1341 510.589 89.5423C514.198 92.0983 517.04 91.7125 520.205 88.7786C520.639 89.7221 521.25 91.1739 521.807 91.9982C515.048 96.4935 515.352 92.9597 509.809 92.7326C509.203 93.2283 509.131 93.4079 508.772 94.0652C507.864 94.3664 508.212 94.3712 507.38 94.1779Z"/><path fill="#000008" transform="matrix(1.3457 0 0 1.34483 0.000976562 0)" d="M453.776 74.1834C456.791 72.7303 459.74 72.0903 463.011 73.2419C463.799 73.5131 464.562 73.8535 465.29 74.2591C465.511 75.177 465.841 76.0298 465.392 76.8502C464.887 77.2158 464.586 77.5168 463.975 77.5888C461.34 75.3426 458.477 75.2986 455.488 76.8502L455.144 76.6586C454.752 75.7431 454.29 75.0254 453.776 74.1834Z"/><path fill="#050635" transform="matrix(1.3457 0 0 1.34483 0.000976562 0)" d="M465.29 74.2591C467.13 75.9627 467.747 76.9019 468.446 79.3121C468.603 80.602 468.97 82.2519 468.451 83.3792C467.823 83.6404 467.726 83.6937 467.056 83.6132C465.758 83.3957 463.452 83.4442 462.055 83.4341L462.756 81.2639C464.022 81.2251 464.367 81.2625 465.416 80.5949C465.008 79.6247 464.445 78.5456 463.975 77.5888C464.586 77.5168 464.887 77.2158 465.392 76.8502C465.841 76.0298 465.511 75.177 465.29 74.2591Z"/><path fill="#02004F" transform="matrix(1.3457 0 0 1.34483 0.000976562 0)" d="M468.446 79.3121C468.603 80.602 468.97 82.2519 468.451 83.3792C467.823 83.6404 467.726 83.6937 467.056 83.6132C465.758 83.3957 463.452 83.4442 462.055 83.4341L462.756 81.2639C464.022 81.2251 464.367 81.2625 465.416 80.5949C467.319 80.9628 466.707 80.6445 467.97 82.2712L468.195 82.1851L468.446 79.3121Z"/><path fill="#000008" transform="matrix(1.3457 0 0 1.34483 0.000976562 0)" d="M371.378 71.3627C372.241 67.2337 376.341 62.9443 380.645 64.8055C381.249 65.6917 381.14 65.2897 380.991 66.4416C379.443 68.2688 376.514 66.062 374.693 71.1026C372.982 71.0697 372.981 70.6211 371.378 71.3627Z"/><path fill="#000008" transform="matrix(1.3457 0 0 1.34483 0.000976562 0)" d="M353.998 139.73C357.233 140.076 358.433 139.425 361.609 138.804C361.832 138.936 362.027 139.051 362.193 139.149C362.652 140.475 362.696 140.047 362.398 141.257C360.555 143.234 355.625 143.292 353.072 142.91C352.968 142.323 353.497 141.395 353.537 140.261L353.542 140.083L353.998 139.73Z"/><path fill="#000008" transform="matrix(1.3457 0 0 1.34483 0.000976562 0)" d="M511.012 73.6557C514.594 72.7804 517.742 71.9285 521.043 74.3019C520.117 76.3899 520.675 77.4775 520.193 78.3701C520.115 78.3039 520.037 78.2381 519.958 78.1728C517.742 76.3313 516.427 75.5551 513.53 75.8139C512.263 75.6106 511.673 74.6333 511.012 73.6557Z"/><path fill="#000008" transform="matrix(1.3457 0 0 1.34483 0.000976562 0)" d="M355.723 80.7544C357.78 80.609 362.01 79.869 363.512 81.3173C363.891 82.2343 363.689 82.9627 363.537 83.9392C361.218 83.8867 357.283 84.6303 355.727 83.3549C355.26 82.4965 355.53 81.7158 355.723 80.7544Z"/><path fill="#000008" transform="matrix(1.3457 0 0 1.34483 0.000976562 0)" d="M475.81 74.4287C479.117 72.1538 482.051 72.708 485.703 73.3693C485.05 74.9335 485.278 75.5474 484.224 76.1895C481.691 75.872 480.366 75.6059 478.036 76.7703C476.899 75.9771 476.606 75.514 475.81 74.4287Z"/><path fill="#000008" transform="matrix(1.3457 0 0 1.34483 0.000976562 0)" d="M534.688 96.1294C536.213 96.5424 536.779 96.4132 537.045 98.1618C535.794 99.9614 531.429 103.263 529.457 101.83C528.616 97.686 532.273 100.082 534.688 96.1294Z"/><path fill="#050635" transform="matrix(1.3457 0 0 1.34483 0.000976562 0)" d="M511.301 124.973C509.674 125.423 506.605 126.77 506.236 124.134C507.527 121.319 512.127 121.455 514.715 121.66C512.768 123.333 513.788 123.603 511.301 124.973Z"/><path fill="#01011E" transform="matrix(1.3457 0 0 1.34483 0.000976562 0)" d="M471.757 81.3492C472.205 78.5261 473.409 76.0765 475.81 74.4287C476.606 75.514 476.899 75.9771 478.036 76.7703C477.247 77.8144 476.394 78.8247 475.892 80.0276C474.129 81.4146 473.449 80.8667 472.027 81.645L471.757 81.3492Z"/><path fill="#000008" transform="matrix(1.3457 0 0 1.34483 0.000976562 0)" d="M429.421 123.468C431.572 121.819 434.538 120.615 437.018 122.379C437.447 123.138 437.395 122.785 437.147 123.718C434.646 126.056 434.187 124.278 431.728 125.119C430.227 124.872 430.107 124.695 429.421 123.468Z"/><path fill="#000008" transform="matrix(1.3457 0 0 1.34483 0.000976562 0)" d="M314.34 139.419C316.986 140.428 321.069 138.756 320.382 142.122C318.697 143.732 315.442 143.21 313.287 142.787C314.368 140.906 313.869 141.203 314.34 139.419Z"/><path fill="#000008" transform="matrix(1.3457 0 0 1.34483 0.000976562 0)" d="M611.674 113.134C615.57 113.679 615.763 114.988 614.39 118.572C610.199 118.648 610.184 116.361 611.674 113.134Z"/></svg>