<?xml version="1.0" encoding="utf-8" ?><svg xmlns="http://www.w3.org/2000/svg" xmlns:xlink="http://www.w3.org/1999/xlink" width="563" height="438" viewBox="0 0 563 438"><path fill="#5DAF7D" transform="matrix(0.488715 0 0 0.488839 0 -3.8147e-06)" d="M746.722 107.578C778.487 104.18 803.857 134.068 790.703 164.613C787.325 172.456 778.572 183.282 773.345 190.357L748.2 224.071C719.429 262.984 690.315 301.643 660.862 340.043C655.055 347.68 645.81 362.106 633.125 354.357C625.609 349.766 627.687 339.783 630.451 332.756C635.842 319.045 641.82 305.266 647.458 291.492C660.272 259.997 673.246 228.568 686.381 197.205L704.238 153.895C713.668 130.841 718.289 112.102 746.722 107.578Z"/><path fill="#F3D8A7" transform="matrix(0.488715 0 0 0.488839 0 -3.8147e-06)" d="M266.043 237.51C272.43 237.087 277.596 236.79 283.83 238.488C288.475 239.784 292.899 241.768 296.956 244.373C310.136 252.982 326.168 265.503 339.037 275.066L394.341 315.71L444.115 352.446C455.054 360.375 465.986 368.032 476.843 376.264C485.076 382.506 487.815 394.808 476.863 400.166C470.013 403.516 462.55 399.709 455.965 397.13C439.597 389.838 419.911 382.797 403.015 375.998L313.317 339.64L276.596 324.957C256.035 316.708 237.452 312.369 232.459 287.488C230.173 276.16 232.482 264.389 238.878 254.764C245.487 244.986 254.661 239.741 266.043 237.51Z"/><path fill="#E8C256" transform="matrix(0.488715 0 0 0.488839 0 -3.8147e-06)" d="M851.74 197.073C890.162 193.963 913.379 241.427 884.575 267.841C878.761 273.173 868.566 278.69 861.627 282.931L825.175 305.037C784.048 330.183 742.69 354.949 701.107 379.333C693.502 383.616 679.634 394.492 670.812 387.955C663.055 382.208 665.827 372.134 671.27 365.808C678.755 357.109 687.365 349.396 695.494 341.223L746.77 289.641L803.791 231.621C812.395 222.849 821.163 212.76 830.418 204.853C835.85 200.212 844.7 197.858 851.74 197.073Z"/><path fill="#F78C8B" transform="matrix(0.488715 0 0 0.488839 0 -3.8147e-06)" d="M901.587 454.213C910.753 453.679 934.391 453.295 942.7 455.11C952.828 457.294 961.644 463.479 967.145 472.258C983.544 498.484 965.294 537.09 933.537 535.949C919.948 535.46 898.07 529.132 884.374 525.91C854.722 518.971 825.109 511.87 795.534 504.607C791.674 503.909 787.67 502.948 783.839 501.993C757.556 495.44 730.895 490.145 704.788 482.961C699.11 481.338 693.849 476.73 694.071 470.353C694.628 454.336 719.04 456.484 730.014 456.395C741.044 456.389 752.073 456.292 763.101 456.105L901.587 454.213Z"/><path fill="#557285" transform="matrix(0.488715 0 0 0.488839 0 -3.8147e-06)" d="M618.628 66.0493C622.859 65.629 629.116 66.2374 633.226 67.2679C643.155 69.8044 651.651 76.2198 656.808 85.0753C667.226 102.732 660.265 122.385 655.717 140.839L645.003 183.694L608.516 327.227C606.328 333.872 603.156 340.169 595.378 341.497C586.611 342.994 582.088 335.03 581.666 327.358C580.926 313.873 581.162 300.339 581.044 286.807L580.287 208.654L579.88 138.683C579.792 126.863 578.809 113.868 579.908 102.2C581.95 80.5085 597.943 67.7979 618.628 66.0493Z"/><path fill="#25953E" transform="matrix(0.488715 0 0 0.488839 0 -3.8147e-06)" d="M657.823 539.506C662.243 539.335 666.795 540.518 670.035 543.665C678.415 551.808 686.405 560.426 694.501 568.864L745.779 622.626L797.942 677.488C805.915 685.878 818.391 698.175 825.225 706.68C831.867 715.059 834.849 725.761 833.498 736.367C831.995 749.043 825.491 757.716 815.713 765.301C803.827 773.9 786.701 775.386 773.594 768.74C767.346 765.509 761.976 760.809 757.947 755.043C755.19 751.043 751.8 744.545 749.367 740.199L734.506 713.567L688.061 629.546L661.866 583.292C655.259 571.709 634.994 545.041 657.823 539.506Z"/><path fill="#F78C8B" transform="matrix(0.488715 0 0 0.488839 0 -3.8147e-06)" d="M484.945 75.6148C498.23 74.7843 515.174 84.0519 520.426 95.7705C527.253 111.004 529.88 135.8 532.466 152.181L542.77 218.443L552.952 284.889C555.031 298.436 557.196 312.016 558.938 325.609C559.157 328.862 559.677 332.818 558.788 335.976C555.577 347.387 543.818 347.387 536.547 339.746C534.024 337.095 533.168 334.745 531.692 331.506C526.012 319.648 520.016 304.021 514.906 291.757L490.138 233.57C480.248 210.864 470.527 188.084 460.977 165.232C456.173 153.926 450.27 142.254 446.447 130.674C436.651 101.005 455.114 77.5057 484.945 75.6148Z"/><path fill="#E8A65B" transform="matrix(0.488715 0 0 0.488839 0 -3.8147e-06)" d="M916.218 317.461C925.451 317.25 933.945 319.103 941.778 324.454C967.257 341.86 964.902 386.37 934.1 396.4C924.61 399.49 913.406 400.817 903.362 402.498C886.991 405.331 870.59 407.987 854.162 410.466L729.999 429.73C719.326 431.423 691.471 439.124 689.201 424.019C687.748 414.345 695.554 409.372 703.131 406.013C717.348 399.711 731.59 393.657 745.861 387.57L820.055 355.863L878.157 330.58C890.368 325.354 903.016 318.557 916.218 317.461Z"/><path fill="#18435F" transform="matrix(0.488715 0 0 0.488839 0 -3.8147e-06)" d="M689.089 504.695C690.346 504.592 695.367 504.415 696.393 504.711C709.382 508.46 725.783 515.705 738.369 520.8L832.596 558.954L881.857 578.933C889.861 582.143 900.854 585.77 908.293 589.608C936.225 604.021 935.036 640.856 912.02 659.101C908.77 661.319 906.211 662.87 902.521 664.289C892.179 668.208 880.697 667.813 870.649 663.192C861.785 659.085 844.065 645.176 835.504 638.814L780.189 597.804L719.962 553.475C708.635 545.238 696.768 537.054 685.76 528.453C677.188 521.755 677.098 508.807 689.089 504.695Z"/><path fill="#F3D8A7" transform="matrix(0.488715 0 0 0.488839 0 -3.8147e-06)" d="M359.363 136.278C377.892 134.865 390.371 140.568 400.339 156.71C406.785 167.149 413.138 177.761 419.503 188.258L462.92 260.529C472.962 277.39 483.113 294.185 493.372 310.915C499.61 321.141 505.712 331.325 511.879 341.707C517.704 350.626 516.653 363.187 503.616 363.7C496.651 363.974 492.749 360.633 487.868 356.28C455.429 326.572 420.955 290.986 389.366 259.861L356.051 226.706C347.803 218.64 339.141 210.681 331.567 201.97C327.048 196.771 325.029 192.175 323.648 185.376C321.427 174.689 323.622 163.559 329.733 154.515C336.826 144.024 347.235 138.632 359.363 136.278Z"/><path fill="#E8C256" transform="matrix(0.488715 0 0 0.488839 0 -3.8147e-06)" d="M612.732 559.726C626.455 559.228 628.149 569.851 632.385 580.207C634.778 586.057 636.95 592.058 639.242 597.955L669.639 677.034L694.059 741.051C698.779 753.38 703.908 765.942 707.975 778.468C709.738 783.897 709.847 788.881 709.046 794.584C707.349 806.654 701.642 814.706 692.247 821.989C689.636 823.815 686.818 825.324 683.852 826.485C673.308 830.62 660.901 830.802 650.49 826.154C641.14 822.026 633.867 814.277 630.339 804.684C627.068 796.02 624.865 771.021 623.676 760.696C620.83 736.944 618.131 713.175 615.58 689.39L607.06 613.717C605.742 602.056 601.488 578.464 603.94 566.548C604.525 563.705 609.689 560.828 612.732 559.726Z"/><path fill="#D83E42" transform="matrix(0.488715 0 0 0.488839 0 -3.8147e-06)" d="M504.622 544.063C517.645 542.763 523.792 551.654 519.125 563.503C516.113 571.152 512.295 578.557 508.754 585.987L489.155 627.179L454.342 699.554C444.909 719.264 435.492 739.05 425.881 758.648C421.45 767.684 411.921 775.526 402.348 778.483C390.735 782.071 380.443 780.592 369.81 775.146C361.104 769.597 355.007 764.063 350.955 754.325C338.776 725.053 365.144 704.242 382.353 683.716C405.925 655.633 429.65 627.679 453.526 599.855L481.725 566.241C488.42 558.246 494.95 547.917 504.622 544.063Z"/><path fill="#E8A65B" transform="matrix(0.488715 0 0 0.488839 0 -3.8147e-06)" d="M549.288 562.487C560.196 561.458 565.141 568.014 564.909 578.393C564.549 594.503 563.361 610.552 562.511 626.63C561.292 653.275 559.919 679.914 558.393 706.544L555.154 764.492C554.599 775.474 554.539 788.906 553.168 799.717C549.372 829.66 519.534 842.623 492.973 829.837C485.429 825.928 478.797 819.266 475.273 811.504C467.074 793.447 476.745 773.373 482.22 755.679L503.18 688.326L528.142 607.409C531.828 595.635 535.292 583.466 539.395 571.844C541.362 566.273 544.194 564.725 549.288 562.487Z"/><path transform="matrix(0.488715 0 0 0.488839 0 -3.8147e-06)" d="M627.489 409.647C642.502 408.276 651.102 412.186 661.337 422.733L661.487 411.864C668.995 411.712 676.505 411.69 684.013 411.797C684.033 441.525 684.542 472.768 683.873 502.375C676.635 502.639 668.806 502.456 661.519 502.413L661.42 491.955L657.668 495.492C642.484 507.34 621.342 508.177 606.33 496.458C574.064 471.269 584.966 415.389 627.489 409.647ZM640.253 484.229C671.673 477.83 668.628 427.462 632.372 430.389C599.069 437.209 606.003 488.407 640.253 484.229Z"/><path transform="matrix(0.488715 0 0 0.488839 0 -3.8147e-06)" d="M473.761 409.614C489.362 408.172 499.257 412.138 506.316 426.453C510.826 420.651 516.555 414.749 523.452 411.957C534.684 407.359 551.361 408.226 560.152 417.42C571.317 429.095 569.595 448.977 569.697 464.088C569.85 476.858 569.821 489.629 569.611 502.398C561.999 502.521 554.411 502.714 546.802 502.412C547.166 483.166 547.59 461.48 545.946 442.313C544.831 429.307 526.54 425.903 518.188 434.66C507.539 445.824 510.087 468.284 510.139 482.873L510.168 502.409C502.447 502.541 494.725 502.569 487.003 502.492C487.304 483.625 487.723 462.864 486.115 444.003C485.458 436.297 479.625 429.529 471.277 429.8C448.976 430.523 451.05 456.297 451.092 471.783L451.204 502.507C443.466 502.839 435.731 502.724 427.991 502.61C428.412 472.756 428.068 441.662 427.971 411.772C435.416 411.739 442.862 411.746 450.307 411.793C450.49 415.577 450.522 419.59 450.617 423.398C458.131 414.933 462.891 411.868 473.761 409.614Z"/><path transform="matrix(0.488715 0 0 0.488839 0 -3.8147e-06)" d="M353.495 409.171C380.082 405.735 404.392 424.576 407.696 451.177C410.999 477.779 392.037 501.993 365.418 505.165C338.984 508.314 314.974 489.515 311.693 463.099C308.413 436.684 327.094 412.582 353.495 409.171ZM362.51 483.641C377.016 482.049 387.495 469.014 385.932 454.505C384.369 439.997 371.354 429.492 356.842 431.026C342.287 432.564 331.745 445.623 333.313 460.173C334.88 474.724 347.962 485.238 362.51 483.641Z"/><path transform="matrix(0.488715 0 0 0.488839 0 -3.8147e-06)" d="M219.336 379.012C233.145 378.66 265.664 377.519 277.148 384.148C284.229 388.302 289.364 395.105 291.418 403.052C296.626 422.569 288.596 441.094 268.259 446.318C270.907 451.996 275.897 460.517 278.999 466.209C285.568 478.156 291.993 490.182 298.272 502.283C290.728 502.509 281.133 503.148 273.707 502.161C272.125 501.951 271.748 500.468 271.068 499.132C267.946 493.04 246.073 450.371 243.251 448.856C241.94 451.089 242.44 496.61 242.431 502.44C234.691 502.596 226.949 502.581 219.209 502.397L219.336 379.012ZM242.496 427.628C251.177 427.605 259.269 428.647 266.496 423.69C269.83 419.648 270.393 417.432 269.889 412.154C268.651 399.195 251.795 400.333 242.561 400.371C242.531 409.381 242.398 418.639 242.496 427.628Z"/><path transform="matrix(0.488715 0 0 0.488839 0 -3.8147e-06)" d="M139.945 543.923L160.75 543.77C165.145 548.863 172.015 560.369 176.079 566.28C188.498 584.338 200.251 604.093 213.071 621.779L213.108 543.87L235.04 543.803L235.064 621.765C235.074 631.423 235.819 651.485 234.988 660.295C227.888 660.33 220.788 660.297 213.689 660.195C208.499 653.53 203.036 644.563 198.178 637.477C185.926 619.604 174.262 600.194 161.623 582.684C160.966 608.157 161.636 634.587 161.416 660.226L139.919 660.318C138.989 623.068 139.418 581.29 139.945 543.923Z"/><path transform="matrix(0.488715 0 0 0.488839 0 -3.8147e-06)" d="M323.706 543.617C325.135 543.575 325.086 543.554 326.454 543.945C327.023 546.199 326.66 561.452 326.627 564.442C312.793 564.351 298.959 564.349 285.125 564.435L285.133 586.237C299.184 586.18 313.234 586.207 327.284 586.319L327.397 607.181C313.794 607.671 298.838 607.32 285.085 607.356C284.906 617.925 285.112 629.088 285.14 639.701C298.457 639.493 311.935 639.555 325.266 639.517C326.043 639.52 326.183 639.642 326.953 639.861C327.804 643.243 327.343 656.301 327.271 660.269L262.637 660.284L262.598 543.942C282.894 543.564 303.351 543.994 323.706 543.617Z"/><path transform="matrix(0.488715 0 0 0.488839 0 -3.8147e-06)" d="M397.964 543.595L401.725 543.632C401.801 550.614 401.797 557.597 401.712 564.579C394.358 564.624 387.003 564.721 379.65 564.87C379.583 596.59 379.869 628.566 379.455 660.259L357.232 660.306L357.136 641.627L357.135 564.922C349.942 564.704 342.38 564.852 335.155 564.888C334.856 558.023 334.962 550.779 334.96 543.876C355.865 543.618 377.108 544.146 397.964 543.595Z"/></svg>