<?xml version="1.0" encoding="utf-8" ?><svg xmlns="http://www.w3.org/2000/svg" xmlns:xlink="http://www.w3.org/1999/xlink" width="378" height="198" viewBox="0 0 378 198"><path transform="matrix(1.16667 0 0 1.16471 -0.000976562 -6.10352e-05)" d="M75.19 77.7619C77.5023 72.4969 85.9482 66.4958 91.1945 64.2598C109.893 56.2903 131.291 63.1648 140.894 81.294C140.916 81.3623 140.938 81.4306 140.96 81.4988C142.428 83.7264 144.209 88.4825 144.684 91.0866C144.939 89.114 144.507 85.6849 145.388 84.7238L146.502 84.2227C146.919 88.45 146.654 95.9339 146.666 100.408C146.679 105.417 146.937 113.296 146.401 118.033C146.283 115.734 145.926 113.224 145.629 110.934C145.698 109.398 146.041 106.558 144.857 105.395L144.898 105.58L144.466 105.992C144.343 106.511 144.502 107.669 144.556 108.254C143.469 110.309 143.097 112.67 142.603 113.559C139.931 118.377 135.448 125.484 130.751 128.357L130.462 128.351L130.342 128.471C117.025 141.476 90.8139 138.082 78.7977 124.853C70.4535 115.666 69.0315 108.248 69.2269 96.1413C69.9845 91.5872 71.5547 86.0199 73.042 81.6101C73.2602 80.9631 74.6966 78.7946 75.19 77.7619ZM134.679 106.634C137.45 106.927 137.46 107.709 138.665 110.019C138.961 108.622 139.785 106.692 139.32 105.555C138.479 105.086 136.515 105.533 135.404 105.663C134.015 104.904 132.711 103.952 131.239 104.856C132.19 105.54 133.591 106.13 134.679 106.634ZM132.215 115.786C131.891 115.991 131.659 116.113 131.396 116.397C129.875 116.676 128.417 114.833 127.167 113.966C128.793 116.104 129.929 116.924 131.336 118.658L131.039 120.059C130.963 121.226 131.05 123.21 131.065 124.435C133.153 121.81 138.106 116.755 138.955 113.649C137.861 113.015 138.881 112.361 137.912 110.406C137.544 115.807 137.958 115.868 132.215 115.786ZM118.755 132.14C121.674 130.172 126.429 127.716 129.715 125.685C127.428 125.851 125.479 126.391 123.912 124.389C123.133 124.639 123.198 124.361 122.325 124.282L121.798 123.896C121.312 125.389 122.644 125.852 121.151 129.001L120.366 128.665C119.814 129.736 119.261 131.029 118.755 132.14ZM73.3684 92.9745C75.4921 91.5504 79.1034 90.0622 81.4173 91.8983C82.0486 92.2596 81.808 92.1733 82.6059 92.088L82.9072 91.6627C82.2188 90.3233 77.957 89.7354 76.5714 89.3292C76.0838 89.1862 75.8203 88.2223 75.0382 88.0498C74.5469 89.6916 74.0783 91.4204 73.3684 92.9745ZM103.158 69.1698L103.99 69.4894C104.046 67.9283 104.533 65.5727 102.806 65.0259L102.37 65.2609C102.146 66.6702 103.156 66.8114 103.158 69.1698ZM85.0729 122.877L85.3382 123.081C84.3398 123.288 84.4122 123.104 83.8831 123.738L84.071 124.259C85.2987 125.411 86.5938 126.031 88.1883 126.52C89.1207 125.174 87.9595 124.737 88.6894 122.571L88.7189 122.486C88.793 122.989 88.8947 124.028 89.1162 124.428C90.0156 121.855 92.1057 119.315 93.7476 117.083C93.5519 116.843 93.2309 116.602 92.985 116.396C92.1832 116.225 91.736 116.554 91.0168 116.935C89.5021 118.537 86.756 122.232 85.0729 122.877ZM90.22 68.0815C90.9288 68.7365 90.5953 68.605 91.5462 68.6442C90.894 69.0204 90.2085 69.2966 89.9796 69.9973C90.3316 70.6674 90.1723 70.4555 90.8697 70.8553C91.4571 71.43 91.9832 72.066 92.7721 72.2597C92.9013 71.539 92.6654 71.3487 92.3344 70.5952C92.5018 69.96 92.6042 69.2839 93.0891 68.8538L93.3297 69.3154C93.845 68.4014 94.2362 67.6692 93.9783 66.6699L93.5126 66.5078C92.4223 66.615 91.1929 67.4907 90.22 68.0815ZM83.225 76.821C83.1858 75.4637 83.1648 74.1059 83.162 72.7479C81.1031 75.059 78.3305 78.6645 76.3528 80.6279C81.7553 79.1113 84.2434 80.6096 88.059 84.5509C88.198 84.2574 88.3222 84.1632 88.5516 83.9283C89.92 84.6147 89.846 84.7814 91.0922 83.8611C88.3413 81.6621 85.7149 79.3118 83.225 76.821ZM95.5095 130.278C95.9393 130.412 99.5683 131.15 99.9508 131.119C99.9338 130.798 98.9872 128.318 98.8102 127.498C97.4894 128.923 96.7288 129.099 95.5095 130.278ZM110.554 129.68C109.709 130.636 108.788 131.632 108.078 132.686C109.101 132.525 110.267 132.313 111.282 132.229C112.296 132.135 112.564 132.273 113.309 131.726C113.072 130.712 111.486 130.17 110.554 129.68ZM80.2545 114.998C81.2753 113.983 85.3872 111.632 85.3717 110.743C84.1815 110.097 81.6833 112.026 78.9457 112.055C78.1232 112.387 77.2479 112.356 76.3594 112.387L76.1088 112.877C76.2282 114.276 78.227 118.362 79.5443 118.436C79.7678 116.764 79.249 116.497 80.2005 115.077L80.2545 114.998ZM77.2627 100.679L76.9214 100.931L76.8426 100.941C75.2337 101.126 74.3409 100.425 73.5383 100.655C73.3022 101.858 73.5302 104.388 73.7772 105.6C74.485 105.236 74.9305 104.257 75.3145 103.505C77.3555 102.851 82.5114 102.294 83.2553 101.215C82.5425 99.8894 78.7368 100.909 77.2627 100.679ZM139.943 92.5186L137.225 94.4521L130.956 94.366C130.185 94.4851 127.7 95.0191 127.098 94.9972C126.242 95.256 125.782 95.2306 125.285 95.8442C126.146 96.6001 129.468 96.5698 130.719 96.5613C133.825 96.5129 137.246 96.3904 140.323 96.546C140.068 95.1063 140.019 93.9672 139.943 92.5186ZM134.381 80.9056C132.938 82.0385 131.366 83.1844 130.179 84.573L130.158 84.9563C130.771 85.0222 131.346 84.5185 131.878 84.1573C134.256 82.7787 134.645 83.8562 136.197 82.9811C136.388 82.0637 135.181 81.0525 134.381 80.9056ZM114.341 65.3788C114.432 66.8263 114.581 68.5127 114.582 69.944C115.1 69.3921 115.627 68.8608 116.064 68.2423C116.987 67.6616 116.966 67.8725 117.343 66.9919C116.711 65.9466 115.554 65.759 114.341 65.3788Z"/><path fill="#EDECED" transform="matrix(1.16667 0 0 1.16471 -0.000976562 -6.10352e-05)" d="M140.96 81.4988C142.428 83.7264 144.209 88.4825 144.684 91.0866C144.939 89.114 144.507 85.6849 145.388 84.7238L146.502 84.2227C146.919 88.45 146.654 95.9339 146.666 100.408C146.679 105.417 146.937 113.296 146.401 118.033C146.283 115.734 145.926 113.224 145.629 110.934C145.698 109.398 146.041 106.558 144.857 105.395L144.898 105.58L144.466 105.992C144.343 106.511 144.502 107.669 144.556 108.254C143.469 110.309 143.097 112.67 142.603 113.559C139.931 118.377 135.448 125.484 130.751 128.357L130.462 128.351C130.497 128.26 133.486 125.502 133.849 125.13C146.771 111.9 146.462 97.9439 140.96 81.4988Z"/><path fill="#D9D9D8" transform="matrix(1.16667 0 0 1.16471 -0.000976562 -6.10352e-05)" d="M71.6094 96.7982C71.6613 96.8929 71.714 96.9871 71.7675 97.0809C73.3208 99.7892 73.8624 100.092 76.9214 100.931L76.8426 100.941C75.2337 101.126 74.3409 100.425 73.5383 100.655C73.3022 101.858 73.5302 104.388 73.7772 105.6C74.485 105.236 74.9305 104.257 75.3145 103.505C77.3555 102.851 82.5114 102.294 83.2553 101.215C82.5425 99.8894 78.7368 100.909 77.2627 100.679C82.5018 99.8596 92.3842 99.6921 97.8238 100.073C92.8449 102.042 79.5344 100.94 75.6153 105.231C75.2519 106.194 75.312 106.658 75.2366 107.591C75.2103 107.915 74.0598 108.288 74.6261 109.37C75.6491 111.324 76.8232 112.027 78.9457 112.055C78.1232 112.387 77.2479 112.356 76.3594 112.387L76.1088 112.877C76.2282 114.276 78.227 118.362 79.5443 118.436C79.7678 116.764 79.249 116.497 80.2005 115.077L80.2545 114.998C81.2753 113.983 85.3872 111.632 85.3717 110.743C84.1815 110.097 81.6833 112.026 78.9457 112.055C85.1324 110.573 91.3953 105.591 98.5055 103.396C93.5565 107.855 86.2903 110.39 81.3954 114.962C79.7357 116.512 80.2618 119.172 80.4127 121.209C81.5966 121.836 83.8189 123.204 85.0729 122.877L85.3382 123.081C84.3398 123.288 84.4122 123.104 83.8831 123.738L84.071 124.259C85.2987 125.411 86.5938 126.031 88.1883 126.52C89.1207 125.174 87.9595 124.737 88.6894 122.571L88.7189 122.486C88.793 122.989 88.8947 124.028 89.1162 124.428C89.2329 128.581 90.7602 129.643 94.7925 129.539L95.5095 130.278C95.9393 130.412 99.5683 131.15 99.9508 131.119C100.682 130.519 100.486 130.346 100.622 129.189C101.983 131.582 102.369 132.122 104.55 133.803C95.2891 132.036 90.7362 130.517 83.2533 124.352C78.5841 120.506 74.2734 113.04 72.6731 107.272C72.3714 106.184 71.7969 98.5164 71.6094 96.7982Z"/><path fill="#E6E5E5" transform="matrix(1.16667 0 0 1.16471 -0.000976562 -6.10352e-05)" d="M133.438 107.457C131.639 107.106 119.591 102.906 118.295 101.701L118.397 101.378C119.983 101.146 129.51 103.218 131.447 103.748L137.786 105.112C140.93 103.916 140.43 103.432 142.136 100.766C141.403 106.343 141.13 108.487 138.955 113.649C137.861 113.015 138.881 112.361 137.912 110.406C136.404 108.071 136.243 108.351 133.438 107.457ZM134.679 106.634C137.45 106.927 137.46 107.709 138.665 110.019C138.961 108.622 139.785 106.692 139.32 105.555C138.479 105.086 136.515 105.533 135.404 105.663C134.015 104.904 132.711 103.952 131.239 104.856C132.19 105.54 133.591 106.13 134.679 106.634Z"/><path fill="#EDECED" fill-opacity="0.0078431377" transform="matrix(1.16667 0 0 1.16471 -0.000976562 -6.10352e-05)" d="M131.239 104.856C132.711 103.952 134.015 104.904 135.404 105.663C136.515 105.533 138.479 105.086 139.32 105.555C139.785 106.692 138.961 108.622 138.665 110.019C137.46 107.709 137.45 106.927 134.679 106.634C133.591 106.13 132.19 105.54 131.239 104.856Z"/><path fill="#D9D9D8" transform="matrix(1.16667 0 0 1.16471 -0.000976562 -6.10352e-05)" d="M137.786 105.112C140.93 103.916 140.43 103.432 142.136 100.766C141.403 106.343 141.13 108.487 138.955 113.649C137.861 113.015 138.881 112.361 137.912 110.406C136.404 108.071 136.243 108.351 133.438 107.457C134.243 107.207 135.208 107.438 135.986 107.688C135.388 107.359 135.168 107.111 134.679 106.634C137.45 106.927 137.46 107.709 138.665 110.019C138.961 108.622 139.785 106.692 139.32 105.555C138.479 105.086 136.515 105.533 135.404 105.663C134.015 104.904 132.711 103.952 131.239 104.856L130.946 104.642L130.915 104.137L131.447 103.748L137.786 105.112Z"/><path fill="#E6E5E5" transform="matrix(1.16667 0 0 1.16471 -0.000976562 -6.10352e-05)" d="M134.315 76.4034C136.46 77.8092 139.13 84.5224 139.863 87.2548C138.966 86.3067 137.663 84.6147 136.392 84.2636C134.63 83.7767 124.362 89.8862 122.109 91.0569C120.415 91.9239 118.949 92.6759 117.186 93.4109L116.931 93.2507C117.179 91.7239 123.099 88.8747 124.393 87.7811C127.272 85.3497 131.161 82.435 133.67 79.6825C133.911 78.7144 134.122 77.4088 134.315 76.4034ZM131.878 84.1573C134.256 82.7787 134.645 83.8562 136.197 82.9811C136.388 82.0637 135.181 81.0525 134.381 80.9056C132.938 82.0385 131.366 83.1844 130.179 84.573L130.158 84.9563C130.771 85.0222 131.346 84.5185 131.878 84.1573Z"/><path fill="#EDECED" transform="matrix(1.16667 0 0 1.16471 -0.000976562 -6.10352e-05)" d="M107.975 109.383C108.363 109.64 108.645 109.761 108.736 110.274C109.846 116.562 110.471 123.184 112.64 129.215C113.18 130.715 116.394 131.627 117.841 132.114C116.181 132.353 114.711 132.572 113.06 132.922C111.205 133.458 107.924 133.446 105.931 133.491C107.065 132.263 108.149 131.116 109.174 129.789C109.472 125.144 107.27 112.433 107.975 109.383ZM108.078 132.686C109.101 132.525 110.267 132.313 111.282 132.229C112.296 132.135 112.564 132.273 113.309 131.726C113.072 130.712 111.486 130.17 110.554 129.68C109.709 130.636 108.788 131.632 108.078 132.686Z"/><path fill="#EDECED" transform="matrix(1.16667 0 0 1.16471 -0.000976562 -6.10352e-05)" d="M104.642 64.4194L105.757 64.1413L105.896 64.3371C105.683 65.0673 105.102 66.9653 105.048 67.6459C104.742 71.5332 107.035 84.7038 105.539 87.5387L105.159 87.5182C104.728 86.8623 102.883 72.5049 102.317 69.9578C101.436 66.0708 100.636 66.259 97.1766 64.5723C99.6389 64.4822 102.172 64.465 104.642 64.4194ZM103.99 69.4894C104.046 67.9283 104.533 65.5727 102.806 65.0259L102.37 65.2609C102.146 66.6702 103.156 66.8114 103.158 69.1698L103.99 69.4894Z"/><path fill="#EDECED" fill-opacity="0.023529412" transform="matrix(1.16667 0 0 1.16471 -0.000976562 -6.10352e-05)" d="M103.158 69.1698C103.156 66.8114 102.146 66.6702 102.37 65.2609L102.806 65.0259C104.533 65.5727 104.046 67.9283 103.99 69.4894L103.158 69.1698Z"/><path fill="#D9D9D8" transform="matrix(1.16667 0 0 1.16471 -0.000976562 -6.10352e-05)" d="M97.1766 64.5723C99.6389 64.4822 102.172 64.465 104.642 64.4194C104.615 65.7391 104.82 68.6731 103.99 69.4894C104.046 67.9283 104.533 65.5727 102.806 65.0259L102.37 65.2609C102.146 66.6702 103.156 66.8114 103.158 69.1698L102.317 69.9578C101.436 66.0708 100.636 66.259 97.1766 64.5723Z"/><path fill="#EDECED" transform="matrix(1.16667 0 0 1.16471 -0.000976562 -6.10352e-05)" d="M112.304 64.2341C115.4 64.6701 116.683 65.1695 119.685 66.1531C117.042 68.2853 116.088 69.8119 114.97 73.094C113.703 76.817 112.324 80.4764 111.308 84.2856C111.157 85.09 110.797 87.5066 109.937 87.7721C109.073 81.5864 114.794 72.4182 112.304 64.2341ZM114.582 69.944C115.1 69.3921 115.627 68.8608 116.064 68.2423C116.987 67.6616 116.966 67.8725 117.343 66.9919C116.711 65.9466 115.554 65.759 114.341 65.3788C114.432 66.8263 114.581 68.5127 114.582 69.944Z"/><path fill="#E6E5E5" transform="matrix(1.16667 0 0 1.16471 -0.000976562 -6.10352e-05)" d="M113.526 91.0126L113.559 90.9265C116.431 83.5212 121.403 78.1664 124.913 71.2599C125.498 70.1091 124.185 69.3541 124.339 68.405C125.263 68.944 126.217 69.4706 127.076 70.1053C129.053 71.5691 130.687 72.749 132.767 74.0537L128.644 73.6373C124.077 74.9492 117.134 87.6171 113.526 91.0126Z"/><path fill="#D9D9D8" transform="matrix(1.16667 0 0 1.16471 -0.000976562 -6.10352e-05)" d="M127.076 70.1053C129.053 71.5691 130.687 72.749 132.767 74.0537L128.644 73.6373C127.915 72.7974 126.304 73.5805 125.525 71.6287C125.921 70.2359 126.076 71.1171 127.076 70.1053Z"/><path fill="#E6E5E5" transform="matrix(1.16667 0 0 1.16471 -0.000976562 -6.10352e-05)" d="M75.3759 84.4516C75.8159 85.7387 76.1358 86.9268 76.4878 88.2412C80.1242 89.6644 85.0062 91.2023 88.7677 92.3448C88.6285 92.7727 88.4119 93.5321 88.1902 93.8881C83.8279 93.4334 80.3199 92.1806 75.5851 92.0935C74.3924 93.2874 73.5502 94.0735 72.2468 95.1404C72.5633 89.9719 73.0594 89.1602 75.3759 84.4516ZM73.3684 92.9745C75.4921 91.5504 79.1034 90.0622 81.4173 91.8983C82.0486 92.2596 81.808 92.1733 82.6059 92.088L82.9072 91.6627C82.2188 90.3233 77.957 89.7354 76.5714 89.3292C76.0838 89.1862 75.8203 88.2223 75.0382 88.0498C74.5469 89.6916 74.0783 91.4204 73.3684 92.9745Z"/><path fill="#E6E5E5" transform="matrix(1.16667 0 0 1.16471 -0.000976562 -6.10352e-05)" d="M120.366 128.665C120.499 128.193 120.835 126.989 120.715 126.549C119.054 120.458 114.985 115.068 112.372 109.338C112.128 108.803 112.343 108.448 112.632 108.079C113.148 108.217 113.349 108.358 113.642 108.856C116.762 114.16 120.658 119.225 123.912 124.389C123.133 124.639 123.198 124.361 122.325 124.282L121.798 123.896C121.312 125.389 122.644 125.852 121.151 129.001L120.366 128.665Z"/><path fill="#D9D9D8" transform="matrix(1.16667 0 0 1.16471 -0.000976562 -6.10352e-05)" d="M76.3528 80.6279C78.3305 78.6645 81.1031 75.059 83.162 72.7479C83.1648 74.1059 83.1858 75.4637 83.225 76.821C85.7149 79.3118 88.3413 81.6621 91.0922 83.8611C89.846 84.7814 89.92 84.6147 88.5516 83.9283C88.3222 84.1632 88.198 84.2574 88.059 84.5509C84.2434 80.6096 81.7553 79.1113 76.3528 80.6279ZM83.8725 80.2121C84.4872 80.6034 84.8658 80.9301 85.5843 80.9193L85.6534 80.5746C84.7567 79.3013 83.7793 78.618 82.8308 77.5057C82.3212 76.9081 83.229 75.9251 82.142 74.9335C81.3102 75.8955 80.0204 77.4128 79.5234 78.5479L79.682 79.0646C80.8748 79.6826 81.9911 79.3617 83.8725 80.2121Z"/><path fill="#E6E5E5" transform="matrix(1.16667 0 0 1.16471 -0.000976562 -6.10352e-05)" d="M92.3344 70.5952C92.5018 69.96 92.6042 69.2839 93.0891 68.8538L93.3297 69.3154C95.139 73.7589 97.1061 77.7544 99.3297 81.9924C99.224 81.7909 102.102 89.1098 102.03 88.5235L101.761 88.9944C99.9487 89.3822 98.7324 84.0927 97.7185 82.559C95.4804 79.1734 93.437 75.5808 90.8235 72.4506C91.1331 71.9621 90.9647 71.4449 90.8697 70.8553C91.4571 71.43 91.9832 72.066 92.7721 72.2597C92.9013 71.539 92.6654 71.3487 92.3344 70.5952Z"/><path fill="#E6E5E5" transform="matrix(1.16667 0 0 1.16471 -0.000976562 -6.10352e-05)" d="M131.039 120.059C129.869 117.162 115.039 107.234 116.098 104.914C116.703 105.048 119.239 107.652 119.916 108.036C123.1 109.844 128.967 114.584 132.146 115.761L132.215 115.786C131.891 115.991 131.659 116.113 131.396 116.397C129.875 116.676 128.417 114.833 127.167 113.966C128.793 116.104 129.929 116.924 131.336 118.658L131.039 120.059Z"/><defs><linearGradient id="gradient_0" gradientUnits="userSpaceOnUse" x1="134.09146" y1="97.877548" x2="132.11349" y2="93.081703"><stop offset="0" stop-color="#E9E8EB" stop-opacity="0"/><stop offset="1" stop-color="#E2E0E1" stop-opacity="0.035294119"/></linearGradient></defs><path fill="url(#gradient_0)" transform="matrix(1.16667 0 0 1.16471 -0.000976562 -6.10352e-05)" d="M137.225 94.4521L139.943 92.5186C140.019 93.9672 140.068 95.1063 140.323 96.546C137.246 96.3904 133.825 96.5129 130.719 96.5613C129.468 96.5698 126.146 96.6001 125.285 95.8442C125.782 95.2306 126.242 95.256 127.098 94.9972C127.7 95.0191 130.185 94.4851 130.956 94.366L137.225 94.4521Z"/><path fill="#E6E5E5" transform="matrix(1.16667 0 0 1.16471 -0.000976562 -6.10352e-05)" d="M100.416 118.841C100.81 118.488 101.195 118.125 101.57 117.752C101.88 118.297 101.958 118.428 102.126 119.034C101.854 120.684 100.336 128.09 100.622 129.189C100.486 130.346 100.682 130.519 99.9508 131.119C99.9338 130.798 98.9872 128.318 98.8102 127.498C97.4894 128.923 96.7288 129.099 95.5095 130.278L94.7925 129.539C98.8363 127.809 98.6363 123.006 100.416 118.841Z"/><path fill="#D9D9D8" transform="matrix(1.16667 0 0 1.16471 -0.000976562 -6.10352e-05)" d="M130.956 94.366C137.596 94.0655 138.24 93.1167 140.444 87.1966C141.298 92.3424 142.248 95.8442 141.99 101.206C140.929 98.7676 140.173 96.5317 136.996 96.6234C134.813 96.6865 132.839 96.7737 130.656 96.702L130.719 96.5613C133.825 96.5129 137.246 96.3904 140.323 96.546C140.068 95.1063 140.019 93.9672 139.943 92.5186L137.225 94.4521L130.956 94.366Z"/><path fill="#D9D9D8" fill-opacity="0.98823529" transform="matrix(1.16667 0 0 1.16471 -0.000976562 -6.10352e-05)" d="M137.912 110.406C138.881 112.361 137.861 113.015 138.955 113.649C138.106 116.755 133.153 121.81 131.065 124.435C131.05 123.21 130.963 121.226 131.039 120.059L131.336 118.658C131.681 119.767 131.952 121.144 132.209 122.298C133.237 120.15 134.364 118.349 135.601 116.315C134.34 116.432 132.692 116.393 131.396 116.397C131.659 116.113 131.891 115.991 132.215 115.786C137.958 115.868 137.544 115.807 137.912 110.406Z"/><defs><linearGradient id="gradient_1" gradientUnits="userSpaceOnUse" x1="96.93988" y1="115.59897" x2="95.145866" y2="108.25219"><stop offset="0" stop-color="#DDD4D7"/><stop offset="1" stop-color="#B4BAB1"/></linearGradient></defs><path fill="url(#gradient_1)" transform="matrix(1.16667 0 0 1.16471 -0.000976562 -6.10352e-05)" d="M91.0168 116.935C92.2768 115.283 98.3289 107.458 99.8612 107.251C100.233 108.65 96.1321 112.99 95.4422 114.593C95.3618 114.779 93.8837 116.946 93.7476 117.083C93.5519 116.843 93.2309 116.602 92.985 116.396C92.1832 116.225 91.736 116.554 91.0168 116.935Z"/><path fill="#E6E5E5" fill-opacity="0.98823529" transform="matrix(1.16667 0 0 1.16471 -0.000976562 -6.10352e-05)" d="M123.912 124.389C125.479 126.391 127.428 125.851 129.715 125.685C126.429 127.716 121.674 130.172 118.755 132.14C119.261 131.029 119.814 129.736 120.366 128.665L121.151 129.001C121.95 129.055 124.195 127.313 125.016 126.752C123.795 125.834 123.263 125.471 122.325 124.282C123.198 124.361 123.133 124.639 123.912 124.389Z"/><path fill="#D9D9D8" fill-opacity="0.98823529" transform="matrix(1.16667 0 0 1.16471 -0.000976562 -6.10352e-05)" d="M91.0168 116.935C91.736 116.554 92.1832 116.225 92.985 116.396C93.2309 116.602 93.5519 116.843 93.7476 117.083C92.1057 119.315 90.0156 121.855 89.1162 124.428C88.8947 124.028 88.793 122.989 88.7189 122.486L90.4405 119.386C89.0253 120.509 86.8055 122.893 85.3382 123.081L85.0729 122.877C86.756 122.232 89.5021 118.537 91.0168 116.935Z"/><path fill="#E6E5E5" transform="matrix(1.16667 0 0 1.16471 -0.000976562 -6.10352e-05)" d="M88.059 84.5509C88.198 84.2574 88.3222 84.1632 88.5516 83.9283C89.92 84.6147 89.846 84.7814 91.0922 83.8611L91.1156 83.9564C91.7504 86.458 97.08 89.8034 98.5577 91.899C96.8293 92.2045 89.2233 86.0646 88.059 84.5509Z"/><path fill="#EDECED" fill-opacity="0.0078431377" transform="matrix(1.16667 0 0 1.16471 -0.000976562 -6.10352e-05)" d="M90.4405 119.386L88.7189 122.486L88.6894 122.571C87.9595 124.737 89.1207 125.174 88.1883 126.52C86.5938 126.031 85.2987 125.411 84.071 124.259L83.8831 123.738C84.4122 123.104 84.3398 123.288 85.3382 123.081C86.8055 122.893 89.0253 120.509 90.4405 119.386Z"/><defs><linearGradient id="gradient_2" gradientUnits="userSpaceOnUse" x1="133.43637" y1="118.97322" x2="129.03677" y2="116.65461"><stop offset="0" stop-color="#FDFBFC" stop-opacity="0"/><stop offset="1" stop-color="#EFEDED" stop-opacity="0.039215688"/></linearGradient></defs><path fill="url(#gradient_2)" transform="matrix(1.16667 0 0 1.16471 -0.000976562 -6.10352e-05)" d="M127.167 113.966C128.417 114.833 129.875 116.676 131.396 116.397C132.692 116.393 134.34 116.432 135.601 116.315C134.364 118.349 133.237 120.15 132.209 122.298C131.952 121.144 131.681 119.767 131.336 118.658C129.929 116.924 128.793 116.104 127.167 113.966Z"/><path fill="#E6E5E5" transform="matrix(1.16667 0 0 1.16471 -0.000976562 -6.10352e-05)" d="M130.656 96.702C128.314 96.7424 119.057 97.8572 117.935 96.9295L118.073 96.5426C119.104 96.0217 125.733 95.0841 127.098 94.9972C126.242 95.256 125.782 95.2306 125.285 95.8442C126.146 96.6001 129.468 96.5698 130.719 96.5613L130.656 96.702Z"/><path fill="#EDECED" transform="matrix(1.16667 0 0 1.16471 -0.000976562 -6.10352e-05)" d="M88.7677 92.3448C90.4055 92.8257 94.9336 94.0062 96.1685 94.8893L96.2503 95.2521L96.0118 95.5968C94.7599 95.692 90.2076 94.1999 88.1902 93.8881C88.4119 93.5321 88.6285 92.7727 88.7677 92.3448Z"/><path fill="#D9D9D8" transform="matrix(1.16667 0 0 1.16471 -0.000976562 -6.10352e-05)" d="M100.416 118.841C100.851 117.524 102.942 110.309 103.753 109.775C104.073 111.42 102.412 116.665 102.126 119.034C101.958 118.428 101.88 118.297 101.57 117.752C101.195 118.125 100.81 118.488 100.416 118.841Z"/><path fill="#D9D9D8" transform="matrix(1.16667 0 0 1.16471 -0.000976562 -6.10352e-05)" d="M85.5465 70.8374C87.3232 69.649 88.2841 69.023 90.22 68.0815C90.9288 68.7365 90.5953 68.605 91.5462 68.6442C90.894 69.0204 90.2085 69.2966 89.9796 69.9973C90.3316 70.6674 90.1723 70.4555 90.8697 70.8553C90.9647 71.4449 91.1331 71.9621 90.8235 72.4506C89.3526 70.7137 87.6313 70.9177 85.5465 70.8374Z"/><defs><linearGradient id="gradient_3" gradientUnits="userSpaceOnUse" x1="93.082809" y1="68.711838" x2="92.035767" y2="67.502571"><stop offset="0" stop-color="#EFE9ED" stop-opacity="0.96470588"/><stop offset="1" stop-color="#E2E2E2"/></linearGradient></defs><path fill="url(#gradient_3)" transform="matrix(1.16667 0 0 1.16471 -0.000976562 -6.10352e-05)" d="M90.22 68.0815C91.1929 67.4907 92.4223 66.615 93.5126 66.5078L93.9783 66.6699C94.2362 67.6692 93.845 68.4014 93.3297 69.3154L93.0891 68.8538C92.6042 69.2839 92.5018 69.96 92.3344 70.5952C92.104 69.6897 91.9978 69.4648 91.5462 68.6442C90.5953 68.605 90.9288 68.7365 90.22 68.0815Z"/><path transform="matrix(1.16667 0 0 1.16471 -0.000976562 -6.10352e-05)" d="M30.4009 24.4489C29.3082 22.2712 30.1187 16.7162 30.9868 14.7413C33.8654 8.19256 43.2741 10.8243 45.539 16.5141C47.3975 21.1827 45.1945 24.4415 44.4097 28.9654C45.9726 30.4512 47.142 31.5796 48.5588 33.2065C48.4535 41.2071 46.8309 48.8358 46.7052 56.803C46.6889 57.8356 45.1018 60.5758 45.5626 61.2415C47.5049 61.4131 49.3585 61.1811 51.3306 61.2229C57.4386 61.3524 63.8128 63.3325 67.8852 68.1034C69.0314 69.4461 70.5241 72.1149 70.5726 73.9136C70.7463 75.1509 71.2647 80.519 71.6687 81.0391C73.0928 80.3851 74.0621 78.5617 75.19 77.7619C74.6966 78.7946 73.2602 80.9631 73.042 81.6101C71.5547 86.0199 69.9845 91.5872 69.2269 96.1413C69.247 92.8698 69.2522 91.861 69.8104 88.7311C68.1757 90.0145 67.2837 91.0811 65.3658 92.473C62.5787 95.9119 53.2468 98.927 49.0453 100.228C50.7967 101.356 53.9506 105.684 55.5297 107.638L69.6583 125.314C72.5513 128.868 74.8094 131.991 78.23 135.085L78.1975 135.486C75.9492 135.875 67.4701 135.647 65.0304 135.363C64.4876 134.149 63.9293 133.412 63.1102 132.39C55.6911 123.13 48.9787 113.306 41.193 104.343C40.2523 103.26 39.3771 102.157 38.54 100.991C37.0587 100.968 35.2276 100.987 33.7823 100.838C33.9448 104.37 33.8333 108.093 34.045 111.54C34.5498 119.756 34.8742 127.273 34.8938 135.504C31.6685 135.511 27.9749 135.43 24.7883 135.552C24.7686 129.914 25.037 124.381 25.2872 118.753C25.338 117.61 25.467 115.913 25.3965 114.81C25.1436 108.959 25.1287 102.679 25.015 96.7939C24.9414 92.9857 24.0161 83.05 24.6106 79.9881C23.2871 78.4013 21.9792 76.8015 20.6871 75.189C19.3039 78.0821 17.1055 81.0026 15.9592 83.9382C15.0723 86.2097 16.1879 88.5276 14.918 90.8306C13.1948 93.7761 6.09702 98.1282 4.08636 94.4389C4.01697 93.5319 4.45825 92.7349 4.99464 92.0104C7.20403 89.0057 8.70728 84.7203 10.2977 81.2974C12.3214 76.942 14.0899 72.3158 14.3898 67.489C12.7016 64.2617 11.6469 63.2971 10.694 59.5938C13.9222 53.7632 19.8929 55.43 20.8642 53.085C20.5587 50.4602 21.8318 45.6639 22.159 42.6208C22.5254 39.2134 22.4836 33.5222 23.5755 30.2656C24.0473 28.8582 28.8582 27.7697 30.4684 27.3843C30.9846 26.4164 30.594 25.8009 30.4009 24.4489ZM35.1746 82.6922C37.8318 85.349 34.5017 92.7166 33.5784 95.9053C36.2092 95.6994 39.7652 96.1342 42.4825 96.0728C53.443 95.8249 61.6566 90.2716 61.3929 78.4704C61.4117 75.0714 59.5394 71.6974 57.0643 69.4015C52.0499 64.75 41.5045 65.4164 34.9836 65.617C34.9131 69.7992 34.8732 75.0868 34.4623 79.2045C34.5026 80.2371 34.4742 81.5535 34.8245 82.4921L35.1746 82.6922Z"/><path fill="#FBC890" transform="matrix(1.16667 0 0 1.16471 -0.000976562 -6.10352e-05)" d="M20.8642 53.085L21.0767 54.039C19.7935 55.6399 17.5082 54.8288 16.1148 55.6924C16.1953 56.2619 16.1384 56.0749 16.6929 56.5197C18.9603 56.9732 22.2061 53.6247 24.9731 57.6504C27.1517 60.8199 24.8154 64.7168 25.181 67.3642C25.6398 70.6854 30.8328 80.7244 33.8056 82.3378L34.1953 82.306C34.5322 81.3418 34.1653 80.4084 34.4623 79.2045C34.5026 80.2371 34.4742 81.5535 34.8245 82.4921L35.1746 82.6922C34.1735 83.9374 33.9956 88.988 33.8251 90.9597C31.9613 91.1444 30.8155 91.3534 29.0065 91.7279L28.736 83.4918L25.8191 80.5974C25.7135 87.0837 25.6426 93.5705 25.6067 100.058C25.5866 104.952 25.6884 109.93 25.3965 114.81C25.1436 108.959 25.1287 102.679 25.015 96.7939C24.9414 92.9857 24.0161 83.05 24.6106 79.9881C23.2871 78.4013 21.9792 76.8015 20.6871 75.189C19.3039 78.0821 17.1055 81.0026 15.9592 83.9382C15.0723 86.2097 16.1879 88.5276 14.918 90.8306C13.1948 93.7761 6.09702 98.1282 4.08636 94.4389C4.01697 93.5319 4.45825 92.7349 4.99464 92.0104C7.20403 89.0057 8.70728 84.7203 10.2977 81.2974C12.3214 76.942 14.0899 72.3158 14.3898 67.489C12.7016 64.2617 11.6469 63.2971 10.694 59.5938C13.9222 53.7632 19.8929 55.43 20.8642 53.085Z"/><path transform="matrix(1.16667 0 0 1.16471 -0.000976562 -6.10352e-05)" d="M15.2569 84.974C15.3883 87.161 15.273 88.6782 14.918 90.8306C13.1948 93.7761 6.09702 98.1282 4.08636 94.4389C4.01697 93.5319 4.45825 92.7349 4.99464 92.0104C5.45665 92.1369 6.06779 92.4312 6.53783 92.5952C11.8002 94.4318 13.8389 88.4918 15.2569 84.974Z"/><path fill="#FBC890" transform="matrix(1.16667 0 0 1.16471 -0.000976562 -6.10352e-05)" d="M30.4009 24.4489C30.6625 25.063 30.9145 25.8872 31.4518 26.2301L31.7807 26.1458C31.5713 22.1159 28.5758 16.5301 33.7393 13.4678C38.6839 10.5354 38.4505 19.8112 40.64 20.7559L41.5507 20.6754C42.4962 22.6344 40.1154 23.4796 39.1012 24.5243C38.6735 24.9648 38.9011 26.5626 38.5419 27.1731C37.5359 29.6907 34.646 36.4508 32.7755 37.9114L32.2925 37.9065C31.594 36.1591 33.1405 29.3912 32.1944 27.0167L31.7977 26.877L31.6747 26.9549C31.1666 27.2724 31.0632 27.3095 30.4684 27.3843C30.9846 26.4164 30.594 25.8009 30.4009 24.4489Z"/><path fill="#D9D9D8" transform="matrix(1.16667 0 0 1.16471 -0.000976562 -6.10352e-05)" d="M70.5726 73.9136C70.7463 75.1509 71.2647 80.519 71.6687 81.0391C73.0928 80.3851 74.0621 78.5617 75.19 77.7619C74.6966 78.7946 73.2602 80.9631 73.042 81.6101C71.5547 86.0199 69.9845 91.5872 69.2269 96.1413C69.247 92.8698 69.2522 91.861 69.8104 88.7311C68.1757 90.0145 67.2837 91.0811 65.3658 92.473C71.9348 84.2533 70.5781 84.2496 70.5726 73.9136Z"/><path fill="#FBC890" transform="matrix(1.16667 0 0 1.16471 -0.000976562 -6.10352e-05)" d="M24.4334 50.4578C25.992 50.4533 29.6674 50.2344 30.6759 51.1788C30.8135 52.1187 30.767 52.3508 30.5881 53.2883L30.8504 53.5805L32.2394 53.5082C33.1718 54.0457 34.5559 56.7237 33.0177 57.5C29.4722 57.6148 26.2999 55.7753 22.6391 54.5417C23.0562 53.3729 23.904 51.6329 24.4334 50.4578Z"/><path transform="matrix(1.16667 0 0 1.16471 -0.000976562 -6.10352e-05)" d="M155.615 83.9374C155.597 85.3875 155.324 89.7249 155.571 90.7586L155.879 90.7709C161.752 85.0415 171.167 79.9624 178.993 84.8856C182.353 86.9992 185.931 90.5892 187.792 94.1352C191.547 85.949 202.647 79.9766 211.299 84.2651C215.019 86.1094 218.598 89.7837 219.98 93.8494C222.022 101.26 220.678 112.111 220.536 119.762C220.483 124.999 220.567 130.235 220.789 135.467L211.205 135.455C211.413 129.808 212.125 124.417 212.007 118.722C211.885 112.841 212.323 106.851 212.07 100.959C211.857 89.0201 199.532 86.1719 191.559 93.489C188.477 96.3179 188.548 100.661 188.268 104.584C188.175 114.839 188.201 125.115 188.528 135.369C185.466 135.45 182.402 135.482 179.339 135.463C178.785 122.247 181.952 108.653 178.675 95.6291C176.861 92.1784 172.393 89.3993 168.812 89.5587C151.665 90.3216 154.689 109.643 154.799 121.595C154.835 125.543 155.301 131.377 155.602 135.44L146.514 135.574C146.47 130.974 146.709 122.152 146.401 118.033C146.937 113.296 146.679 105.417 146.666 100.408C146.654 95.9339 146.919 88.45 146.502 84.2227C149.743 84.3316 152.485 84.797 155.615 83.9374Z"/><path transform="matrix(1.16667 0 0 1.16471 -0.000976562 -6.10352e-05)" d="M259.208 83.0741C260.401 82.9588 262.058 82.9035 263.253 82.949C272.686 83.3086 279.542 92.1951 279.443 101.152C279.317 112.695 279.628 124.009 279.401 135.416C276.674 135.529 273.179 135.426 270.39 135.426C269.994 128.419 271.455 121.719 271.248 114.682C271.047 107.865 272.177 100.197 268.045 94.2238C263.982 88.3499 256.237 88.3783 250.809 92.2848C250.427 92.6325 250.052 92.9891 249.687 93.3541C246.765 96.2885 245.563 101.03 245.313 105.058C244.686 115.164 245.757 125.26 245.77 135.347C242.692 135.462 239.705 135.425 236.63 135.396C236.505 131.552 236.535 127.679 236.619 123.834C236.908 110.569 236.487 97.3444 236.646 84.0774C238.662 84.6291 239.943 84.8994 242.006 85.2353C243.217 84.5877 244.464 83.8836 245.58 84.8913C245.994 85.9942 245.48 90.8209 245.548 92.9795C245.997 92.2927 246.463 91.6174 246.946 90.9543C249.022 88.1469 255.523 83.6287 259.208 83.0741Z"/><path transform="matrix(1.16667 0 0 1.16471 -0.000976562 -6.10352e-05)" d="M297.354 83.957C302.087 85.4464 302.329 85.3912 307.08 83.8168C307.139 86.4665 306.045 90.2182 306.03 93.2917C305.972 99.5937 306.009 105.898 306.008 112.201C306.006 119.768 305.822 127.147 306.573 134.69L306.606 135.065C305.573 135.736 298.894 135.475 297.18 135.464C296.902 125.912 298.189 115.821 297.692 106.153C297.541 103.234 297.658 100.235 297.5 97.2551C297.28 93.0818 296.698 88.0329 297.354 83.957Z"/><path transform="matrix(1.16667 0 0 1.16471 -0.000976562 -6.10352e-05)" d="M301.42 60.3297C305.726 60.1995 306.538 61.6373 307.688 65.489C306.832 68.826 305.781 69.896 302.665 71.3623C300.604 71.4644 299.002 70.3001 297.342 69.2312C296.114 65.8441 296.217 64.842 297.561 61.501C299.028 60.7624 299.807 60.5257 301.42 60.3297Z"/><path transform="matrix(1.16667 0 0 1.16471 -0.000976562 -6.10352e-05)" d="M192.096 96.1859C193.394 97.8542 192.307 115.887 191.569 118.446L191.46 118.28C190.855 112.205 191.241 104.673 191.283 98.4996C191.288 97.8267 191.77 96.7816 192.096 96.1859Z"/><path transform="matrix(1.16667 0 0 1.16471 -0.000976562 -6.10352e-05)" d="M159.335 97.2306L159.956 96.1079L160.243 96.0917C160.599 98.8269 158.841 103.055 158.764 105.234C158.616 109.476 158.092 114.108 158.027 118.277C157.969 122.051 158.467 124.835 158.093 128.912C156.811 123.282 157.174 116.579 157.232 110.764L157.862 111.577C157.899 109.445 158.404 106.773 158.263 104.799C158.668 103.056 159.652 98.8005 159.335 97.2306Z"/><path transform="matrix(1.16667 0 0 1.16471 -0.000976562 -6.10352e-05)" d="M281.243 102.585C280.994 99.8926 281.221 96.3299 281.369 93.5629L282.013 93.1093C282.596 93.8935 282.005 98.6808 282.024 100.047C282.057 102.514 282.939 109.091 282.03 111.199L281.744 111.349L281.579 111.04C282.234 109.037 282.029 104.567 281.243 102.585Z"/><path transform="matrix(1.16667 0 0 1.16471 -0.000976562 -6.10352e-05)" d="M250.06 96.6648C250.127 96.7172 250.161 96.7371 250.211 96.8175C250.891 97.9215 249.169 106.487 248.562 108.065L248.328 107.799C247.918 103.535 248.078 100.489 250.06 96.6648Z"/><path transform="matrix(1.16667 0 0 1.16471 -0.000976562 -6.10352e-05)" d="M281.707 116.777L282.599 116.747C282.644 118.266 282.665 119.788 282.625 121.308C282.552 124.09 281.76 126.798 281.598 129.57C281.035 127.414 280.852 122.597 281.219 120.396C281.243 121.179 281.228 122.906 281.5 123.554C282.446 122.322 282.315 118.94 282.245 117.419L281.744 116.969L281.707 116.777Z"/><path transform="matrix(1.16667 0 0 1.16471 -0.000976562 -6.10352e-05)" d="M54.2837 102.007C54.772 100.195 58.0534 99.0049 59.8396 98.9096L60.0503 99.0791C59.2036 100.196 56.9079 100.409 56.491 102.001L56.1849 102.037C55.5558 101.606 55.2085 101.852 54.2837 102.007Z"/><path transform="matrix(1.16667 0 0 1.16471 -0.000976562 -6.10352e-05)" d="M159.335 97.2306C159.652 98.8005 158.668 103.056 158.263 104.799L157.358 104.631C157.58 102.74 158.409 98.8248 159.335 97.2306Z"/><path transform="matrix(1.16667 0 0 1.16471 -0.000976562 -6.10352e-05)" d="M158.263 104.799C158.404 106.773 157.899 109.445 157.862 111.577L157.232 110.764C157.205 108.79 157.107 106.572 157.358 104.631L158.263 104.799Z"/><path transform="matrix(1.16667 0 0 1.16471 -0.000976562 -6.10352e-05)" d="M281.744 116.969L282.245 117.419C282.315 118.94 282.446 122.322 281.5 123.554C281.228 122.906 281.243 121.179 281.219 120.396C281.304 119.339 281.342 117.913 281.744 116.969Z"/><path transform="matrix(1.16667 0 0 1.16471 -0.000976562 -6.10352e-05)" d="M54.2837 102.007C55.2085 101.852 55.5558 101.606 56.1849 102.037C56.0295 103.734 57.4365 104.698 58.3801 106.861L58.2973 107.031C56.8811 105.396 55.5285 103.384 54.2837 102.007Z"/><path fill="#EDECED" fill-opacity="0.11372549" transform="matrix(1.16667 0 0 1.16471 -0.000976562 -6.10352e-05)" d="M144.556 108.254C144.502 107.669 144.343 106.511 144.466 105.992L144.898 105.58L144.857 105.395C146.041 106.558 145.698 109.398 145.629 110.934C145.012 110.021 146.04 108.771 144.556 108.254Z"/><path transform="matrix(1.16667 0 0 1.16471 -0.000976562 -6.10352e-05)" d="M281.243 102.585C282.029 104.567 282.234 109.037 281.579 111.04C281.161 107.881 281.149 105.739 281.243 102.585Z"/><path transform="matrix(1.16667 0 0 1.16471 -0.000976562 -6.10352e-05)" d="M190.66 125.793C191.032 125.926 191.082 126.004 191.381 126.275C191.667 127.505 191.428 128.927 191.123 130.139L190.689 130.022C190.307 128.749 190.413 127.093 190.66 125.793Z"/><path transform="matrix(1.16667 0 0 1.16471 -0.000976562 -6.10352e-05)" d="M222.743 113.884L223.151 114.325C223.223 115.314 223.231 116.89 222.859 117.81L222.539 117.843C222.541 118.092 222.465 118.212 222.367 118.438C222.142 117.49 222.493 114.846 222.743 113.884Z"/><path transform="matrix(1.16667 0 0 1.16471 -0.000976562 -6.10352e-05)" d="M281.707 116.777C281.983 115.639 282.253 112.727 282.391 112.391C282.423 113.703 282.633 115.599 282.599 116.747L281.707 116.777Z"/></svg>